<?xml version="1.0" encoding="UTF-8"?>
<svg width="101px" height="97px" viewBox="0 0 101 97" version="1.1" xmlns="http://www.w3.org/2000/svg" xmlns:xlink="http://www.w3.org/1999/xlink">
    <!-- Generator: Sketch 61 (89581) - https://sketch.com/ -->
    <title>Csupoort-1</title>
    <desc>Created with Sketch.</desc>
    <g id="Page-1" stroke="none" stroke-width="1" fill="none" fill-rule="evenodd">
        <g id="Home-Images" transform="translate(-9627.000000, -464.000000)">
            <g id="Icons/150px/7" transform="translate(9629.000000, 464.000000)">
                <path d="M71.043525,0.018378361 C94.0259664,-1.13278506 101.82845,52.1057461 48.5651375,72.278856 C-4.69817514,92.4519659 -17.1447608,37.3271505 20.081437,23.0575346 C57.3076348,8.7879188 48.0610837,1.16954179 71.043525,0.018378361 Z" id="green-copy" fill="#03EBC3" opacity="0.5" transform="translate(43.666667, 38.333333) scale(-1, 1) translate(-43.666667, -38.333333) "></path>
                <path d="M82.89766,42.6792468 C98.6407204,41.8846959 104.001304,78.9420867 67.5209051,92.9675019 C31.040506,106.992917 22.4980685,68.621283 47.9944899,58.7001589 C73.4909113,48.7790348 67.1545995,43.4737977 82.89766,42.6792468 Z" id="Red-Copy" fill="#FF3B59" style="mix-blend-mode: multiply;"></path>
                <path d="M18,78.6666667 C17.6148823,80.1108579 32.7298773,67.2035976 34.5107502,66.9564059 C38.3107854,66.428947 41.8285084,65.3666965 44.8901968,63.8889577 C47.8095179,62.4799332 48.6610559,67.8962608 52.583493,71.189085 C54.5129213,72.8088097 56.7680034,74.2486367 58.9009473,75.2909939 C63.0105078,77.299312 71.6666667,90.4988078 71.6666667,88 C71.6666667,86.7922647 70.00225,73.9061896 74.5195804,73.3102609 C83.9939648,72.0603948 98.6666667,69.1542761 98.6666667,52 C98.6666667,30.6666667 63.500545,17.8418906 60,16.3333333 C55.7441309,14.4992697 38.6666667,8.66666667 24,15.3333333 C18.2944626,17.9267594 16.4378813,30.8948502 11.7000883,33.5051181 C5.37978177,36.9872655 1.33333333,42.3357776 1.33333333,48.3333333 C1.33333333,54.8373558 6.09204606,60.5780886 13.3488305,64.0030433 C17.7999416,66.1038159 19.3333333,73.6666667 18,78.6666667 Z" id="Oval" fill="#FFFFFF"></path>
                <path d="M63.2178408,19.8017814 C63.219865,19.7823482 63.2194602,19.7645344 63.2239136,19.7438866 C63.2040756,19.7426721 63.1822132,19.7442915 63.1615655,19.7438866 C63.165614,19.7612955 63.1680432,19.7791093 63.1724966,19.7957085 C63.1870715,19.7985425 63.2024561,19.8001619 63.2178408,19.8017814 M63.3648043,20.0831579 C63.4081242,20.1013765 63.5178408,20.0782996 63.5202699,20.0621053 C63.5635897,19.7928745 63.3749258,19.8175709 63.2178408,19.8017814 C63.2044804,19.9329555 63.24861,20.0337652 63.3648043,20.0831579 M96.3643995,58.1940891 C96.1729015,58.5244534 95.914197,58.9220243 95.7089339,59.3459109 C95.185857,60.4276923 94.7251282,61.5414575 94.168448,62.6054251 C93.459946,63.9604858 92.6376788,65.2455061 91.5154116,66.3131174 C90.9899055,66.8123077 90.497193,67.3459109 89.9769501,67.8511741 C89.688691,68.1309312 89.3955735,68.4151417 89.0672335,68.6434818 C88.2769501,69.1920648 87.4704723,69.7187854 86.6579217,70.2349798 C86.2526586,70.4928745 85.8182456,70.7050202 85.400027,70.9430769 C84.3498246,71.5406478 83.1676383,71.8276923 82.0874764,72.3580567 C81.7340351,72.5321457 81.3251282,72.5908502 80.945776,72.7155466 C80.6421323,72.8155466 80.3518489,73.0066397 80.0449663,73.0337652 C79.3895007,73.0920648 78.8109582,73.3823482 78.1923347,73.5361943 C77.417031,73.7289069 76.697193,74.1479352 75.868448,74.1212146 C74.9032659,74.4762753 73.8522537,74.6147368 72.9980027,75.2617004 C73.1210796,75.3434818 73.2368691,75.4872065 73.3530634,75.4880162 C74.8024561,75.4977328 76.2518489,75.4908502 77.7012416,75.4782996 C77.9405128,75.4762753 78.2052901,75.4831579 78.4129825,75.3884211 C78.9380837,75.1483401 79.4793792,74.9916599 80.0482051,75.0422672 C80.7312011,75.1034008 81.2761404,74.6900405 81.9089339,74.5754656 C83.1826181,74.3451012 84.2652092,74.0017814 85.0992173,73.568583 C86.6639946,72.7552227 88.3040756,72.0617004 89.6105533,70.822834 C91.2745209,69.7831579 92.5117679,68.2900405 93.8150067,66.8669636 C93.9231039,66.7487449 94.0364642,66.6240486 94.105695,66.4823482 C94.8437517,64.9665587 96.0048853,63.6888259 96.5870715,62.0329555 C96.6534683,61.6094737 96.6433468,61.0993522 96.8210796,60.6669636 C97.1125776,59.9588664 97.0874764,59.2511741 97.0166262,58.5321457 C96.991525,58.2766802 96.7716869,58.1531984 96.3643995,58.1940891 M73.0563023,84.1823482 C72.4190553,83.43417 71.96278,82.60583 71.8846424,81.5859919 C71.8546829,81.1993522 71.6417274,80.8272874 71.4631849,80.3042105 C71.4631849,79.5661538 71.457112,78.6787045 71.4652092,77.7904453 C71.4708772,77.1475304 71.4680432,76.5110931 71.6882861,75.8795142 C71.7785695,75.6204049 71.5550877,75.2677733 71.5708772,74.962915 C71.5866667,74.6540081 71.7518489,74.3548178 71.7890958,74.0442915 C71.802861,73.9272874 71.6409177,73.7900405 71.5469906,73.6426721 C71.3210796,73.6305263 71.0818084,73.6179757 70.8838327,73.6070445 C70.4615655,73.8005668 70.105695,74.062915 70.0413225,74.4689879 C69.9522537,75.0357895 69.6526586,75.5321457 69.5733063,76.0863968 C69.4482051,76.9580567 69.5465857,77.8608907 69.1939541,78.7001619 C69.6510391,79.7750607 69.3360594,80.9426721 69.5980027,82.0402429 C69.6166262,82.1179757 69.6465857,82.1969231 69.6882861,82.2645344 C69.9996221,82.7661538 69.9065047,83.365749 70.088691,83.8981377 C70.3388934,84.3094737 70.5975978,84.7167611 70.8356545,85.1349798 C70.9275574,85.2965182 70.8631849,85.4471255 70.6720918,85.5722267 C70.4352497,85.3754656 70.1809987,85.1787045 69.9437517,84.9637247 C68.9210796,84.0382186 68.108529,82.9357895 67.2984076,81.8297166 C66.6809987,80.9863968 66.0526586,80.1503644 65.4239136,79.3159514 C64.7955735,78.4819433 64.6004318,77.4082591 64.1449663,76.4710121 C64.0745209,76.3260729 64.0299865,76.160081 63.9291768,76.0422672 C63.7757355,75.8633198 63.5834278,75.717166 63.4178408,75.5669636 C63.2445614,75.6293117 63.0587314,75.6434818 62.9668286,75.7434818 C62.8741161,75.8446964 62.811363,76.0483401 62.8461808,76.177085 C62.9502294,76.5621053 63.1789744,76.9175709 63.1368691,77.3365992 C63.0437517,78.2592713 63.511363,79.0580567 63.7231039,79.9094737 C63.8757355,80.5220243 64.251444,81.0750607 64.6425371,81.5948988 C65.0785695,82.174251 65.5097436,82.7596761 65.8980027,83.3710121 C66.8648043,84.8932794 68.0927395,86.1394332 69.6510391,87.0568421 C69.9259379,87.2187854 70.1785695,87.4183806 70.4218893,87.5868016 C71.0263428,87.6353846 71.5700675,87.728502 72.1008367,87.9653441 C72.6190553,88.1969231 73.1890958,88.2220243 73.7830229,87.8738462 C73.837274,87.6159514 73.9008367,87.3131174 73.965614,87.0046154 C74.2129825,86.82 74.4660189,86.6309312 74.7178408,86.4430769 C74.7040756,86.2863968 74.6907152,86.1321457 74.6773549,85.9762753 C74.1360594,85.3803239 73.5793792,84.7953036 73.0563023,84.1823482 M16.4089339,26.4475304 C16.4482051,26.4025911 16.5291768,26.3499595 16.5502294,26.2795142 C16.6421323,25.9758704 16.7097436,25.6653441 16.7980027,25.3608907 C17.3154116,23.5746559 17.5405128,23.1734413 18.7312011,21.8119028 C19.1008367,21.3892308 19.4482051,20.9463158 19.9150067,20.3803239 C19.9660189,20.3434818 20.1729015,20.2155466 20.3546829,20.0592713 C21.208529,19.3236437 22.0182456,18.5333603 23.0109582,17.9754656 C23.8603509,17.0839676 24.9716869,16.5807287 26.0012416,15.9560324 C27.0291768,15.3325506 28.059946,14.7337652 29.2186505,14.3499595 C30.2048853,14.0240486 31.1380837,13.5382186 32.2911201,13.0378138 C32.6251282,12.9649393 33.1988124,13.002996 33.7235088,12.7252632 C33.9959784,12.5815385 34.3364642,12.5475304 34.6518489,12.5062348 C35.2097436,12.4337652 35.7724966,12.4252632 36.2988124,12.1681781 C36.5048853,12.0669636 36.7672335,12.0604858 37.005695,12.0479352 C37.7312011,12.0098785 38.457112,11.9807287 39.1834278,11.9653441 C39.9907152,11.9483401 40.7988124,11.9382186 41.605695,11.9483401 C42.3324157,11.9568421 43.0619703,12.0540081 43.7834278,12.0078543 C44.6174359,11.954413 45.3421323,12.3997571 46.1364642,12.4297166 C47.2801889,12.4730364 48.3101484,12.9726316 49.4174359,13.1536032 C49.8878812,13.2305263 50.3696626,13.360081 50.7939541,13.5706073 C51.6603509,14.0017814 52.5643995,14.3264777 53.4664238,14.6645344 C53.8413225,14.8050202 54.2008367,14.9924696 54.5546829,15.1819433 C56.0409177,15.9774899 57.6352497,16.5795142 58.9733063,17.6418623 C60.2210796,18.2094737 61.4162213,18.8645344 62.5239136,19.6815385 C62.6712821,19.7904453 62.9360594,19.7410526 63.1615655,19.7438866 C63.1320108,19.6082591 63.1178408,19.4625101 63.0478003,19.3527935 C62.4862618,18.474251 61.9101484,17.6046154 61.3842375,16.8021862 C59.6583266,15.7495547 58.0352497,14.7070445 56.3591363,13.7584615 C55.4583266,13.2487449 54.5433468,12.7467206 53.5267476,12.4499595 C52.9162213,12.271417 52.3202699,12.025668 51.7069096,11.8374089 C51.094359,11.6495547 50.4984076,11.4082591 49.8951687,11.1896356 C49.291525,10.9710121 48.6384885,11.022834 48.0271525,10.7410526 C47.3060999,10.4094737 46.4696626,10.414332 45.6927395,10.1948988 C45.0093387,10.0017814 44.2518489,10.0467206 43.5259379,10.0329555 C41.0231039,9.98437247 38.5206748,9.97546559 36.0004318,10.1531984 C35.7194602,10.2617004 35.4271525,10.4078543 35.1178408,10.4851822 C34.7283671,10.582753 34.3109582,10.579919 33.9299865,10.6989474 C32.554278,11.1272874 31.1878812,11.5859919 29.8202699,12.0398381 C29.5935493,12.1151417 29.3716869,12.2102834 29.1579217,12.3167611 C27.8615655,12.9592713 26.5680432,13.6070445 25.2737112,14.2540081 C24.2591363,14.7612955 23.3676383,15.4495547 22.4907152,16.1564372 C22.1137922,16.4604858 21.7842375,16.828502 21.3878812,17.1013765 C20.3842375,17.7916599 19.4733063,18.5621053 18.8733063,19.6459109 C18.3356545,20.1268826 17.7980027,20.6078543 17.1643995,21.1750607 C17.0032659,21.485587 16.7984076,21.9224291 16.5563023,22.3378138 C16.2745209,22.82 15.959946,23.2831579 15.7206748,23.6592713 C15.554278,24.5005668 15.5793792,25.2232389 15.6882861,25.9442915 C15.7473954,26.3378138 16.0279622,26.4467206 16.4089339,26.4475304 M98.4498246,49.1365992 C98.3809987,48.8248583 98.154278,48.52 98.1716869,48.2216194 C98.2299865,47.2212146 97.7332254,46.3499595 97.5907152,45.3973279 C97.44861,44.4451012 97.0648043,43.5511741 96.6696626,42.6722267 C96.7162213,41.8608907 96.1052901,41.3617004 95.7546829,40.7487449 C95.6992173,40.5038057 95.6453711,40.2677733 95.5927395,40.0361943 C95.3469906,39.5224291 94.9267476,39.1374089 94.6664238,38.6224291 C94.3093387,37.9159514 93.8093387,37.274251 93.3243185,36.6402429 C92.1899055,35.1556275 90.7392982,33.9791093 89.3984076,32.6965182 C89.2287719,32.53417 88.9854521,32.4519838 88.7903104,32.3127126 C87.0785695,31.0876113 85.1498246,30.2693927 83.2781646,29.3394332 C82.1210796,28.7645344 80.9109582,28.365749 79.6890958,27.9734413 C79.0773549,27.7762753 78.4733063,27.5912551 77.8445614,27.4471255 C77.1510391,27.2884211 76.5048853,26.9212146 75.8356545,26.6438866 C75.4348448,26.6070445 75.0340351,26.5487449 74.6312011,26.5382186 C74.2077193,26.5268826 73.8737112,26.2896356 73.4963833,26.1653441 C73.1975978,26.0665587 72.8583266,26.0957085 72.5392982,26.0511741 C72.2235088,26.0066397 71.8846424,25.9989474 71.6024561,25.871417 C71.1478003,25.665749 70.6878812,25.5442915 70.1984076,25.5766802 C69.608529,25.6155466 69.1101484,25.322834 68.4534683,25.1503644 C66.6336302,25.1119028 64.6959784,25.0430769 62.7587314,25.0381482 C60.5793792,25.0329555 58.3996221,25.0791093 56.219865,25.1167611 C55.7376788,25.1248583 55.2320108,25.1123077 54.7809987,25.2515789 C54.2380837,25.4183806 53.6992173,25.5459109 53.1392982,25.6321457 C52.5060999,25.7301215 51.9453711,26.1309312 51.2761404,26.108664 C51.197193,26.10583 51.111363,26.1167611 51.0376788,26.1451012 C50.1388934,26.4900405 49.2720918,26.9078543 48.3619703,27.231336 C47.765614,27.4430769 47.1955735,27.774251 46.6935493,28.1961134 C46.517031,28.3442915 46.2700675,28.4074494 46.0243185,28.5240486 C44.9854521,28.3155466 44.1648043,27.5977328 43.1834278,27.2596761 C42.1247233,26.8948988 41.059946,26.5467206 39.8720918,26.1495547 C39.1202699,26.1046154 38.2348448,26.0519838 37.394359,26.0013765 C37.0554926,25.8681781 36.7583266,25.7511741 36.5433468,25.6665587 L33.0830229,25.6665587 C32.6069096,25.8479352 32.140108,25.9787045 31.765614,26.2900405 C31.6692578,26.6459109 31.7696626,26.9066397 32.2052901,27.0795142 C32.6016464,27.0795142 33.0842375,27.0693927 33.5664238,27.0815385 C34.291525,27.1005668 35.0162213,27.1357895 35.7409177,27.1641296 C36.3903104,27.5872065 37.1522537,27.4519838 37.8583266,27.5928745 C38.0137922,27.6240486 38.1611606,27.6928745 38.3137922,27.7394332 C39.1558974,27.9965182 40.0032659,28.2394332 40.840108,28.5131174 C41.44861,28.7119028 42.0445614,28.9511741 42.645776,29.1722267 C43.3048853,29.8135223 44.2069096,29.9823482 44.9992173,30.3580567 C45.8105533,30.7418623 46.5388934,31.2536032 47.2125776,31.808664 C48.5202699,32.8863968 49.7635897,34.0576518 50.8445614,35.3621053 C51.6623752,36.3483401 52.4587314,37.3608907 53.1757355,38.43417 C53.714197,39.2406478 54.2158165,40.0548178 54.6332254,40.9289069 C55.0146019,41.7260729 55.3563023,42.5329555 55.6360594,43.374251 C55.8878812,44.1325506 56.3567072,44.8135223 56.4805938,45.6244534 C56.9878812,46.3900405 56.8174359,47.3564372 57.2364642,48.1576518 C57.3773549,48.4272874 57.3882861,48.7851822 57.3927395,49.1034008 C57.4271525,51.4430769 57.5449663,53.7847773 57.3150067,56.0880162 C56.0332254,59.1293117 55.4129825,60.3204049 54.4591363,61.6017814 C53.2518489,62.3608907 52.0959784,63.0884211 50.9392982,63.814332 C50.6676383,63.9851822 50.4121727,64.2337652 50.1158165,64.3013765 C49.4716869,64.4483401 48.9279622,64.7965182 48.3425371,65.0592713 C46.9344399,65.6916599 46.3615655,65.8823482 44.4704723,66.3078543 C44.237274,66.3604858 43.9955735,66.4212146 43.7882861,66.5345749 C43.4194602,66.7361943 43.0222942,66.7665587 42.6226991,66.8119028 C42.3040756,66.8483401 41.9336302,66.7985425 41.6777598,66.9459109 C41.0842375,67.2880162 40.400027,67.1758704 39.8178408,67.3957085 C39.1190553,67.6596761 38.4247233,67.7681781 37.6996221,67.817166 C37.5421323,67.8276923 37.3672335,67.8523887 37.2356545,67.9297166 C36.6546829,68.2710121 35.9643995,68.1592713 35.3712821,68.3892308 C34.8336302,68.5973279 34.3004318,68.7612955 33.7307962,68.7430769 C33.0623752,68.7216194 32.5162213,69.1778947 31.8603509,69.1782996 C31.2814035,69.1791093 30.7769501,69.4410526 30.242942,69.6127126 C29.6316059,69.8094737 28.9494197,69.6232389 28.3405128,69.8969231 C28.2664238,69.9301215 28.194359,69.9661538 28.1190553,70.0021862 C27.591525,69.8580567 27.2890958,69.2175709 26.5834278,69.337004 C26.4413225,69.7519838 26.3340351,70.2175709 26.1259379,70.6329555 C25.8623752,71.1580567 25.9826181,71.7487449 25.7611606,72.2706073 C25.4648043,72.8406478 25.0089339,73.3038057 24.7729015,73.925668 C24.5453711,74.5240486 24.1449663,75.0467206 23.6773549,75.5062348 C23.102861,76.0706073 22.5441565,76.6519838 22.04861,77.1556275 C21.2279622,77.5617004 20.5109582,77.9195951 19.7878812,78.2641296 C19.7652092,78.2750607 19.6809987,78.1556275 19.5785695,78.0467206 C19.8352497,77.4928745 20.1360594,76.9289069 20.3611606,76.3353846 C20.6166262,75.6625101 20.8040756,74.9637247 21.0546829,74.1706073 C21.0271525,73.4661538 21.0579217,72.6511741 20.9453711,71.8568421 C20.8340351,71.0677733 20.5781646,70.2989474 20.3591363,69.4135223 C19.9737112,68.8353846 19.5287719,68.1681781 19.1283671,67.5665587 C18.685857,67.3365992 18.3328205,67.1451012 17.9716869,66.9697976 C17.8295816,66.9005668 17.6712821,66.8329555 17.5174359,66.8260729 C17.002861,66.8034008 16.6044804,66.4908502 16.1939541,66.2621053 C15.0716869,65.6361943 13.9854521,64.9451012 12.8919298,64.2677733 C11.3222942,63.2953036 9.90812416,62.0993522 8.35144399,61.1034008 C7.60933873,60.628502 6.92958165,60.0479352 6.2591363,59.4718219 C4.52431849,57.982753 3.30245614,56.0904453 2.12796221,54.1584615 C1.74253711,53.5244534 1.65468286,52.7961134 1.36237517,52.13417 C1.20488529,51.777085 1.09921727,51.3487449 1.13079622,50.965749 C1.18666667,50.2835628 0.76925776,49.728502 0.72877193,48.8993522 C0.859946019,48.4564372 1.08990553,47.8556275 1.11784076,47.2042105 C1.13443995,46.808664 1.19638327,46.3888259 1.35468286,46.031336 C1.64739541,45.3693927 1.75549258,44.6434818 2.14253711,44.0139271 C3.28059379,42.1621053 4.50083671,40.3693927 5.86682861,38.6787045 C6.11784076,38.3677733 6.40812416,38.0491498 6.74982456,37.8592713 C7.3980027,37.4977328 7.8980027,36.9718219 8.44415655,36.4989474 C8.87492578,36.125668 9.34294197,35.8220243 9.83363023,35.5438866 C10.9538731,34.9082591 12.0490148,34.2357895 13.0267476,33.3888259 C13.2093387,33.2309312 13.3959784,33.0608907 13.6105533,32.9596761 C15.4231039,32.1005668 17.14861,31.0588664 19.0567072,30.3997571 C20.419865,29.9289069 21.7911201,29.4718219 23.1166262,28.908664 C23.7854521,28.6244534 24.494359,28.4766802 25.1546829,28.1702024 C25.5060999,28.0074494 25.9453711,28.0451012 26.3364642,27.9564372 C26.7316059,27.8661538 27.0445614,27.6479352 27.1935493,27.2119028 C27.0174359,27.0588664 26.8380837,26.9021862 26.6716869,26.757247 C26.3388934,26.8426721 26.0388934,26.9511741 25.7299865,26.9892308 C25.4137922,27.0280972 25.088691,26.9977328 24.8324157,26.9977328 C24.5490148,26.8612955 24.3312011,26.7568421 24.0243185,26.6090688 C23.4903104,26.7863968 22.8996221,27.0726316 22.242942,27.0459109 C21.045776,27.4965182 19.7332254,27.5936842 18.6036707,28.2540081 C17.8376788,28.7013765 16.9619703,28.8900405 16.1607557,29.2548178 C15.2822132,29.654413 14.408529,30.0653441 13.5384885,30.4835628 C13.1765452,30.657247 12.8409177,30.8738462 12.4312011,30.9515789 C12.2065047,30.9944939 11.9773549,31.1204049 11.7963833,31.2661538 C10.8518489,32.028502 9.79273954,32.6062348 8.74334683,33.2005668 C7.83403509,33.7155466 6.94051282,34.260081 6.14901484,34.9418623 C3.93363023,36.8511741 2.14982456,39.1349798 0.529176788,41.5519838 C0.26197031,41.9503644 0.0352496626,42.3839676 -0.154224022,42.825668 C-0.407260459,43.4135223 -0.650985155,44.0135223 -0.810094467,44.6305263 C-0.912118758,45.025668 -1.06232119,45.3908502 -1.21049933,45.7633198 C-1.23964912,45.8365992 -1.24815115,45.9191903 -1.25705803,45.9985425 C-1.28418354,46.2394332 -1.32385965,46.4803239 -1.32709852,46.7216194 C-1.3360054,47.4483401 -1.33438596,48.1750607 -1.32790823,48.9013765 C-1.32507422,49.2244534 -1.26717949,49.5499595 -1.29390013,49.8689879 C-1.37041835,50.7868016 -0.736410256,51.5479352 -0.751794872,52.4536032 C-0.755843455,52.6819433 -0.634385965,52.9175709 -0.54734143,53.1406478 C0.138083671,54.8981377 1.02553306,56.5560324 2.70690958,58.4568421 C3.02553306,58.8167611 3.31986505,59.1997571 3.61298246,59.5819433 C4.25508772,60.4163563 4.97614035,61.1418623 5.88099865,61.7204049 C6.68788124,62.2361943 7.53282051,62.7268826 8.18909582,63.465749 C8.39071525,63.6924696 8.75022942,63.7702024 8.99840756,63.9653441 C9.8299865,64.6204049 10.8206748,64.9795142 11.7299865,65.4872065 C13.3473954,66.3904453 15.0077193,67.1847773 16.7567072,67.7965182 C16.902861,67.8475304 17.0251282,67.965749 17.205695,68.0835628 C17.4348448,68.3467206 17.6996221,68.6499595 17.9295816,68.9135223 C18.154278,69.5774899 18.3595412,70.1843725 18.5700675,70.8066397 C18.6287719,72.2467206 18.6980027,73.6981377 18.5105533,75.1240486 C18.2834278,75.5791093 18.0676383,76.0106883 17.8951687,76.3556275 C16.8720918,77.7046154 15.4789744,78.631336 14.7838327,80.1957085 C15.2724966,80.4094737 15.7089339,80.6001619 16.1129825,80.7766802 C16.3194602,80.7766802 16.4809987,80.7746559 16.6421323,80.777085 C17.3676383,80.7892308 18.0975978,80.8560324 18.817031,80.7961134 C19.2834278,80.7580567 19.7299865,80.5167611 20.1947638,80.4025911 C20.505695,80.325668 20.8324157,80.3119028 21.1166262,80.274251 C21.8737112,79.9046154 22.597193,79.5515789 23.2048853,79.254413 C23.9392982,78.6722267 24.5704723,78.1718219 25.1652092,77.7005668 C25.7065047,77.0487449 26.2214845,76.4289069 26.7623752,75.7778947 C26.9809987,75.3021862 27.2340351,74.7973279 27.4465857,74.2762753 C27.6579217,73.757247 27.7530634,73.1758704 28.0376788,72.70583 C28.3417274,72.2034008 28.1749258,71.5706073 28.5814035,71.1268826 C28.6433468,71.0754656 28.7008367,71.0167611 28.7676383,70.9722267 C29.4631849,70.508664 30.3312011,70.6948988 31.0591363,70.354413 C31.7818084,70.7900405 32.4583266,70.5499595 33.1129825,70.2297166 C33.6125776,70.1904453 34.100027,70.0948988 34.5777598,70.1301215 C35.1757355,70.1738462 35.654278,69.8365992 36.2052901,69.7337652 C37.0631849,69.574251 37.8615655,69.1321457 38.7712821,69.174251 C38.9235088,69.1815385 39.0955735,69.1264777 39.2316059,69.0515789 C39.7433468,68.7706073 40.3275574,68.7953036 40.8583266,68.6378138 C41.6303914,68.4094737 42.4243185,68.2993522 43.1919298,68.0787045 C43.5737112,67.9689879 43.9178408,67.7236437 44.3502294,67.802996 C44.7550877,67.9317409 45.0255331,68.2463158 45.2077193,68.5973279 C45.9433468,70.0159514 47.1595412,70.9317409 48.4538731,71.768583 C50.6862618,73.2123077 53.0595412,74.3932794 55.454278,75.5398381 C56.1874764,75.8908502 56.9761404,76.0402429 57.714197,76.3673684 C58.3830229,76.662915 59.151444,76.6001619 59.8587314,76.4017814 C60.2065047,76.3042105 60.6194602,76.1669636 60.6765452,75.6880162 C60.4336302,75.3394332 60.108529,75.131336 59.7299865,74.9568421 C57.9793792,74.1503644 56.3032659,73.1835628 54.4745209,72.5438866 C54.2518489,72.4661538 54.0538731,72.3123077 53.8494197,72.1859919 C52.345776,71.254413 50.7688529,70.4503644 49.2530634,69.5386235 C48.3567072,69.0001619 47.4911201,68.4163563 46.6048853,67.8649393 C46.4818084,67.7880162 46.4129825,67.6248583 46.3182456,67.5009717 C46.5854521,67.0531984 47.0117679,66.857247 47.4935493,66.728502 C48.0344399,66.5843725 48.591525,66.4665587 49.0975978,66.2390283 C49.6044804,66.011498 50.0538731,65.6564372 50.5360594,65.3706073 C50.8125776,65.2062348 51.108529,65.0758704 51.388691,64.9179757 C53.2186505,63.885587 54.4465857,62.868583 55.637274,61.4074494 C55.8700675,60.7969231 56.3376788,60.3467206 56.6935493,59.8204049 C57.1405128,59.1596761 57.46278,58.414332 57.8275574,57.7272874 C57.8773549,56.9706073 58.1324157,56.2863968 58.2733063,55.5831579 C58.4150067,54.8766802 58.5927395,54.1839676 58.7546829,53.4839676 C58.9162213,52.7835628 58.9186505,52.0511741 59.2125776,51.3697976 C59.3004318,51.1669636 59.3032659,50.8499595 59.2044804,50.6580567 C58.8154116,49.9001619 58.8712821,49.0948988 58.8421323,48.2896356 C58.8218893,47.7289069 58.8218893,47.1455061 58.6639946,46.6167611 C58.2745209,45.3135223 57.965614,43.9884211 57.5137922,42.6977328 C57.1101484,41.5451012 56.5546829,40.4916599 55.959946,39.4451012 C55.7615655,39.0957085 55.5437517,38.7576518 55.34861,38.4070445 C54.4822132,36.8523887 53.4324157,35.4329555 52.2150067,34.1361943 C51.8834278,33.7835628 51.4708772,33.479919 51.2312011,33.0738462 C50.6368691,32.068583 49.7805938,31.3673684 48.8384885,30.7268826 C48.4433468,30.4584615 48.108529,30.1001619 47.7842375,29.8163563 C47.7963833,29.5815385 47.8044804,29.428502 47.8137922,29.2467206 C48.0789744,29.0981377 48.3478003,28.9191903 48.6388934,28.7920648 C49.0789744,28.6001619 49.5267476,28.4195951 49.9850472,28.2782996 C51.7413225,27.7386235 53.4336302,26.9276923 55.3340351,26.982753 C56.4899055,26.5467206 57.7048853,26.5900405 58.908529,26.5418623 C59.2307962,26.5289069 59.554278,26.5349798 59.8777598,26.537004 C62.4611606,26.5556275 65.0449663,26.5746559 67.468448,26.5924696 C67.9307962,26.7556275 68.2340351,26.8625101 68.5826181,26.985587 C69.7376788,27.054413 70.957112,27.0062348 72.1020513,27.4766802 C73.3186505,27.4961134 74.437274,28.0815385 75.6591363,28.0896356 C75.8890958,28.0912551 76.1166262,28.2252632 76.3469906,28.2928745 C77.1154116,28.5179757 77.8603509,28.8098785 78.6307962,29.0361943 C79.8607557,29.3973279 81.0595412,29.865749 82.2664238,30.3042105 C84.6388934,31.165749 86.6405128,32.6811336 88.7494197,34.0062348 C88.9518489,34.1333603 89.1247233,34.3127126 89.2947638,34.4843725 C90.2607557,35.4592713 91.2235088,36.437004 92.1818084,37.42 C92.3502294,37.5920648 92.5194602,37.7758704 92.6380837,37.9831579 C93.7975978,40.0046154 95.0546829,41.9750607 95.954278,44.1361943 C96.1700675,44.6540081 96.3563023,45.1835628 96.5478003,45.7110931 C96.794359,46.3904453 96.6190553,47.1730364 97.057112,47.8066397 C97.1032659,48.2888259 97.1643995,48.7702024 97.191525,49.2536032 C97.2137922,49.654413 97.1959784,50.0580567 97.1959784,50.4325506 C97.8044804,51.2301215 97.4700675,52.1989474 97.7785695,53.1013765 C97.8903104,52.908664 97.9959784,52.802996 98.0129825,52.6847773 C98.1133873,51.9693927 98.119865,51.2463158 98.4392982,50.562915 C98.645776,50.12 98.5546829,49.6098785 98.4498246,49.1365992" id="Fill-1" fill="#1A1919"></path>
            </g>
        </g>
    </g>
</svg>