<?xml version="1.0" encoding="UTF-8"?>
<svg width="100px" height="101px" viewBox="0 0 100 101" version="1.1" xmlns="http://www.w3.org/2000/svg" xmlns:xlink="http://www.w3.org/1999/xlink">
    <!-- Generator: Sketch 61 (89581) - https://sketch.com/ -->
    <title>Csupoort-2</title>
    <desc>Created with Sketch.</desc>
    <g id="Page-1" stroke="none" stroke-width="1" fill="none" fill-rule="evenodd">
        <g id="Home-Images" transform="translate(-9474.000000, -463.000000)">
            <g id="Icons/150px/2" transform="translate(9474.000000, 464.000000)">
                <path d="M80.4187315,27.3496377 C105.954777,26.3283842 114.624204,73.5588935 55.4427454,91.4554476 C-3.73871312,109.352002 -17.5682527,60.4480773 23.7941893,47.788802 C65.1566312,35.1295266 54.8826856,28.3708912 80.4187315,27.3496377 Z" id="green" fill="#03EBC3" opacity="0.5"></path>
                <path d="M76.159266,-0.289240732 C88.7537136,-0.924881395 93.0421803,28.7210295 63.8578628,39.941361 C34.6735453,51.1616925 27.8395956,20.464387 48.2367316,12.5274882 C68.6338675,4.59058936 63.5648184,0.346399932 76.159266,-0.289240732 Z" id="Red" fill="#FF3B59" style="mix-blend-mode: multiply;"></path>
                <path d="M12,77.6666667 C16.4444444,60.1111111 22.5555556,49 30.3333333,44.3333333 C42,37.3333333 47.6666667,37 50.3333333,38.3333333 C52.1111111,39.2222222 53,39.2222222 53,38.3333333 C60.1111111,26.1111111 65.3333333,18.4444444 68.6666667,15.3333333 C72,12.2222222 76.5555556,7.77777778 82.3333333,2 C81.4444444,30.8888889 80.7777778,46.1111111 80.3333333,47.6666667 C79.8888889,49.2222222 80.5555556,49.4444444 82.3333333,48.3333333 C87.3865008,52.8226499 90.0093169,56.2667433 90.2017816,58.6656136 C91.5404579,75.3508077 83.8065307,87.1289365 80.3333333,91.3333333 C74,99 84.6666667,73.3333333 77,67.3333333 C69.3333333,61.3333333 75.6666667,69 71.3333333,71 C68.4444444,72.3333333 63.1111111,71.7777778 55.3333333,69.3333333 L48,86.6666667 C45.7777778,82.4444444 45.7777778,76.2222222 48,68 C51.3333333,55.6666667 40.6666667,54.6666667 35,56.6666667 C31.2222222,58 23.5555556,65 12,77.6666667 Z" id="Path-24" fill="#FFFFFF"></path>
                <path d="M63.133727,31.7643752 C63.5625826,33.1430178 64.3372895,34.226817 65.3320836,34.9857888 C66.2602227,34.9370647 67.0688859,34.8146297 67.8630862,34.8770965 C68.5447277,34.9301933 69.2106487,35.194428 69.7111898,35.3218603 C70.470805,35.2462754 71.0675557,35.1863073 71.7164985,35.1213418 C72.5257905,34.6884468 73.4878859,34.4573195 74.2984356,33.8738795 C75.124077,33.2798201 75.6447404,32.4721242 76.1245305,31.6925383 C76.2018754,31.3177375 76.2263994,30.9847893 76.3408447,30.6849486 C76.5647048,30.0983852 76.4527748,29.5468033 76.3773163,28.9458725 C76.2364605,27.8320892 75.6013518,26.9456851 75.2787668,25.9305994 C74.8970728,25.7681857 74.5323569,25.6569947 74.2160601,25.4664709 C73.8909599,25.2715745 73.6130212,24.9992192 73.441982,24.8624168 C72.9357815,24.6793891 72.5786114,24.5525814 72.222699,24.4214011 C70.653163,23.8429584 69.1282732,23.96227 67.6455143,24.7118718 C67.5430166,24.7637193 67.3090954,24.7574726 67.5103179,25.061686 C68.1636625,25.0192085 68.8534786,24.9736078 69.5420371,24.9286317 C70.4513116,25.0154605 71.3448656,25.2359684 72.1623323,25.6819814 C73.2646547,26.2829122 74.0689161,27.1093482 74.2261213,28.4242746 C74.2569335,28.6841366 74.3826976,28.9321298 74.4015622,28.9895993 C74.3078679,29.9241028 74.2330383,30.6737046 74.1550645,31.4551644 C74.0066629,31.7106537 73.8431695,31.9917544 73.7607941,32.1329294 C72.608166,33.1898679 71.3637302,33.6727364 69.9677486,33.8557641 C69.538893,33.6614923 69.1131815,33.3885124 68.6478543,33.2741981 C67.6964488,33.0399475 66.9745628,32.5152263 66.3866156,31.7831152 C66.3061266,31.5419933 66.2294105,31.3127401 66.1464062,31.0622482 C66.0288167,31.2184152 65.9357513,31.3420995 65.7992972,31.5245026 C65.5804677,30.7342974 65.7647121,29.9815723 65.7144065,29.2750726 C66.1426333,28.607927 66.5475937,27.9770122 66.9525541,27.3467221 C66.7437857,27.2342818 66.5312443,27.1205922 66.2652533,26.9775432 C65.6345463,27.3804541 65.015158,27.7758691 64.5605208,28.0657151 C63.8336042,29.033326 63.3060238,29.878502 63.3871417,30.9491832 C63.683945,31.0872349 63.6455869,31.3046194 63.5336569,31.4995159 C63.3619888,31.6132055 63.2418841,31.6925383 63.133727,31.7643752 L63.133727,31.7643752 Z M12.0175344,76.5224724 C12.330687,75.6666771 12.4677699,74.7646563 12.8651845,73.9213543 C13.297813,73.0037168 13.4481011,71.9723897 13.837341,71.0141487 C14.545393,69.2706999 15.1295672,67.476653 15.7162568,65.6876035 C16.0350688,64.7162445 16.4425445,63.7842396 16.7997146,62.8322454 C17.1612864,61.8727551 17.4933036,60.9051441 17.9297051,59.9737639 C18.2038708,59.3872005 18.3975476,58.7631571 18.6773727,58.1790924 C19.6168306,56.216385 20.8040438,54.4223381 22.1421739,52.690758 C23.4884786,50.9491832 25.1963552,49.579286 26.6262931,47.9357841 C26.7306773,47.8158478 26.8784501,47.730893 27.0142754,47.6415654 C27.3689302,47.4073149 27.7034627,47.1112222 28.0939602,46.9662992 C28.5618027,46.7932661 28.6661869,46.3185183 29.0088941,46.072399 C30.6872161,44.8699129 32.2636692,43.5299997 34.0664977,42.4942999 C35.764942,41.5185683 37.4891679,40.6090514 39.3102321,39.8781897 C39.75921,39.6976606 40.1459346,39.3615892 40.5980566,39.1929288 C40.9986153,39.0442577 41.4312438,38.9667989 41.8462654,38.8481119 C42.6216011,38.6263547 43.4051115,38.3508761 44.2496175,38.4308336 C44.5030321,38.454571 44.780342,38.2440578 45.0299837,38.2765406 C45.5996952,38.3490021 46.1738083,38.0066839 46.7560961,38.3789862 C46.9937903,38.5307805 47.3956066,38.4252116 47.7225933,38.445201 C48.0489511,38.4651904 48.4142959,38.4114689 48.6928634,38.5395259 C49.3763913,38.853734 50.2127226,38.7456664 50.8434296,39.3540931 C50.8321108,39.578349 50.8189056,39.8444576 50.8057004,40.1099416 C50.0517446,41.3030578 49.27578,42.4755599 48.557667,43.681794 C47.6986981,45.1247775 46.8611091,46.5821282 46.06628,48.0607177 C45.5550489,49.0120873 45.1356256,50.012181 44.6803595,50.9922853 C44.1326568,52.1710341 43.6006747,53.3566543 43.0359938,54.5266577 C42.9353825,54.7346722 42.9328673,55.0457569 42.6291469,55.1188431 C42.6027365,54.8739732 42.5769548,54.6303526 42.5549461,54.4248368 C41.829916,53.7508199 40.898004,53.8226567 40.0836814,53.5671674 C39.7950528,53.4765906 39.422791,53.5453041 39.1152978,53.6321329 C37.2326091,54.1624762 35.3920514,54.7796483 33.7300787,55.8646969 C32.9226731,56.3919168 32.0492414,56.8210638 31.2298883,57.3470344 C29.5308152,58.439579 28.0166153,59.7545054 26.4627998,61.0257051 C25.7522326,61.6066465 25.1787482,62.3487522 24.3348711,62.7754006 C24.1518843,62.8678515 23.9802163,63.0589999 23.8928102,63.2457757 C23.5784,63.9197926 22.9904528,64.3476903 22.4528112,64.7918293 C20.8260525,66.1373645 19.303678,67.6153294 18.080622,69.159509 C17.9114693,69.3725208 17.7014432,69.5536746 17.5310329,69.7660618 C17.3650242,69.9722023 17.2254261,70.2002061 17.075138,70.416966 C16.8361862,70.5206609 16.5079419,70.560015 16.3683437,70.7417934 C15.7860559,71.5045132 15.0333577,72.120436 14.5560829,72.9824781 C14.2762578,73.4859606 13.7732013,73.8676328 13.3908785,74.2817878 C13.4638216,74.4829309 13.518529,74.633476 13.5839264,74.8152544 C13.1387214,75.5417434 12.6897436,76.2744792 12.2451674,77.0009682 C11.8685039,76.9353781 11.9691152,76.6555268 12.0175344,76.5224724 L12.0175344,76.5224724 Z M51.4879707,43.9903801 C52.2865727,42.4480745 53.0732272,40.9001468 53.8605105,39.3528438 C54.8653658,37.3788925 55.9620288,35.4536652 56.9763163,33.4847112 C57.7661149,31.951151 58.7181492,30.5006715 59.636856,28.9483712 C60.0531352,29.1089109 60.2996328,29.2038604 60.6266195,29.3300434 C61.1007502,27.762751 61.8188632,26.341631 62.6577098,24.9511197 C63.445622,23.6436893 64.3071061,22.4080957 65.2805203,21.2443389 C66.0080657,20.3748009 66.7305805,19.5040135 67.3990167,18.5894993 C67.5266673,18.4139676 67.6819859,18.2584252 67.8347893,18.0816441 C68.4082736,17.7874254 68.9893038,17.4894587 69.6332161,17.1590093 C70.0098796,17.1590093 70.4513116,17.1902427 70.8864554,17.1533873 C72.8232226,16.9890995 74.6738415,17.455102 76.5294909,17.8892463 C76.581683,17.9017397 76.6382768,17.9086111 76.6841807,17.9335978 C78.3153412,18.8037605 80.1187985,19.2541462 81.795234,20.011244 C81.8895571,20.0537215 81.9587274,20.1517944 82.0763168,20.2573633 C82.2725088,20.9688603 82.1769281,21.7272074 82.1127884,22.4786832 C82.0492775,23.230159 82.2033386,23.9803854 81.9713038,24.7412312 C81.7543607,25.4502296 81.7197756,26.2141987 81.574518,27.1487023 C81.5946403,27.2080457 81.6801599,27.4610363 81.7650507,27.7140269 C81.8587449,28.2206328 81.2808588,28.579817 81.4638456,29.1126589 C81.6223084,29.573664 81.2632519,29.9409689 81.2054004,30.3632445 C81.1846493,30.5150389 81.2098021,30.6961926 81.2777147,30.832995 C81.3896448,31.0553768 81.3129287,31.2396539 81.259479,31.4476684 C81.2374702,31.533248 81.3927889,31.6750476 81.3613479,31.7443858 C80.9211735,32.7269888 81.2846318,33.7907986 81.0368765,34.7890183 C80.985942,34.9951588 80.8928766,35.1919293 80.8079858,35.4230565 C80.8966495,35.621701 81.1117061,35.8971796 81.0488241,35.9958772 C80.7224662,36.5049817 80.8979071,37.0634351 80.8042129,37.588781 C80.6627283,38.3827342 80.5721781,39.1898054 80.3709555,39.9681419 C80.0062396,41.3748946 79.7012617,42.7885186 79.4459605,44.220258 C79.2592008,45.2690758 78.8718474,46.2829122 78.4731752,47.6609301 C78.4455071,47.9895056 78.4555682,48.6735172 78.2361098,49.3750195 C78.0336296,50.0203017 78.032372,50.7467908 77.8934026,51.4370491 C77.7022412,52.3865446 77.4827828,53.3204235 77.2004424,54.2474311 C76.9023815,55.2231627 76.6659449,56.210763 76.2326876,57.1496393 C75.9673253,57.7243339 75.8836922,58.3839835 75.7384346,59.009901 C75.5076575,60.0062467 75.0869766,60.9388762 74.7738239,61.9071118 C74.4594137,62.8784708 74.1104183,63.8392104 73.7721128,64.8168161 C73.3143315,64.9761064 73.1854233,65.3983821 73.0143841,65.7894244 C73.3099297,66.1042571 72.9672225,66.3941031 72.9797989,66.6976919 C73.0150129,67.5797233 72.7012315,68.3767998 72.3899653,69.165131 C72.037197,69.2363432 71.8586119,69.0027173 71.7171273,68.7847081 C70.6242372,67.1043508 70.2582637,66.7301746 68.4893915,65.5333104 C68.30892,65.4121248 68.1561166,65.2509604 67.9875927,65.1116594 C66.2683974,63.6824187 64.426582,62.4424524 62.3715965,61.5348096 C61.8282956,61.2949371 61.3264968,60.978855 60.6800693,60.9907237 C60.3876677,60.9963457 60.0908644,60.7489771 59.741869,60.5921854 C59.7607336,60.3579348 59.7248909,60.1324296 59.8009781,59.9537746 C60.4618685,58.4177156 60.8309862,56.7692164 61.6283306,55.2868788 C61.8006275,54.1037574 62.3445572,53.0255802 62.6250112,51.8811881 C62.8702512,50.8817191 63.1909497,49.9122341 63.5248534,48.9471218 C63.7015519,48.4355186 63.5833337,47.866446 63.9354732,47.3854515 C64.0694119,47.2024237 64.0040146,46.8551082 63.9826347,46.5858763 C63.9612548,46.3241403 63.880137,46.0661524 63.8298313,45.8312771 C63.9467919,45.2940625 64.0606085,44.769966 64.1901455,44.1715339 C64.034198,43.8111004 63.8430366,43.3688353 63.7040672,43.0458819 C63.0620414,42.3843583 62.5061641,41.8115376 61.9138151,41.2012368 C60.4499209,40.8420527 59.195424,41.5098229 57.7711455,42.2594247 C57.376875,42.6835744 56.8555828,43.2439017 56.2462557,43.8991786 C55.7457145,44.7580973 55.1445621,45.7257082 54.6113223,46.7289253 C54.2572963,47.3954462 54.0013663,48.1125652 53.7033054,48.8028235 C53.5806854,48.7790861 53.4807029,48.7597214 53.3090349,48.7259893 C52.9990264,48.9327545 52.6450004,49.1682544 52.2771404,49.4131243 C52.1847038,49.5930287 52.0664855,49.7779305 51.9897694,49.9790736 C51.4351497,51.4389231 50.8528619,52.8900272 50.4780849,54.4098448 C50.3472902,54.9395634 49.9121464,55.2912515 49.7681465,55.8515788 C49.5977361,56.5156011 49.2059809,57.1259019 49.1236054,57.8430209 C49.1015967,58.0297967 48.8896842,58.1953337 48.7544878,58.3852328 C48.1910646,58.5314052 47.6659994,58.4883031 47.1541395,58.2353125 C45.9090749,58.6344754 44.5854076,58.1709717 43.3629805,58.6076147 C43.1240287,58.2546772 43.2340723,57.9104851 43.3698975,57.6412531 C43.7842903,56.8204391 44.1288839,55.9652685 44.6495473,55.194428 C44.9803069,54.7046881 45.2827696,54.1768436 45.4883939,53.6258862 C46.153686,51.8443327 47.0359213,50.1783428 48.0118507,48.5504576 C48.5394312,47.6696755 48.9726885,46.7332979 49.4468192,45.8206578 C49.6216313,45.4845863 49.790784,45.1453915 49.9549062,44.8224381 C50.2133514,44.6762657 50.4472727,44.5438361 50.6698751,44.4182778 C50.7880934,44.4769966 50.8861894,44.5263454 51.0509404,44.6081769 C51.1930538,44.4095324 51.3716389,44.2158853 51.4879707,43.9903801 L51.4879707,43.9903801 Z M73.3728118,12.0604679 C74.0123223,11.3164881 74.7021384,10.6118624 75.4083039,9.9284755 C76.6231851,8.75222538 77.7670097,7.51288378 78.7812972,6.16484992 C78.9925809,5.88374926 79.2837248,5.76568698 79.5025544,5.53455977 C80.0634623,4.94112503 80.6130514,4.33707093 81.1909375,3.76050223 C81.4154264,3.53624637 81.7027974,3.37570666 81.9838802,3.16956617 C82.1347971,3.44629416 82.2624477,3.68179405 82.4353734,4.00099947 C82.2888582,5.28531718 82.8026045,6.58525159 82.779967,7.94577881 C82.7567006,9.36002749 82.8264997,10.7755255 82.8271285,12.1903989 C82.8271285,13.5509261 82.7636177,14.9108286 82.7805958,16.2707312 C82.7893993,16.9959709 82.3863254,17.6162664 82.4265699,18.435831 C82.0964391,18.3046507 81.8637755,18.2128244 81.5814351,18.1010088 C81.5405617,17.9111097 81.4971731,17.7080926 81.4531557,17.5050754 C81.3852431,17.4244932 81.3324221,17.3170503 81.2462737,17.2689509 C81.0092084,17.1352719 80.7689989,16.9872255 80.5105537,16.914764 C79.8314275,16.7248649 79.1598472,16.5387138 78.5656118,16.1308055 C78.0342584,15.7659993 77.2350275,15.9883812 76.8099448,15.365587 C76.1270457,15.2062967 75.4460331,14.928944 74.7599899,14.913952 C73.6538946,14.8902146 72.5566027,14.6528407 71.3517826,14.8589812 C71.9095464,13.7551926 72.6458952,12.9062685 73.3728118,12.0604679 L73.3728118,12.0604679 Z M83.6760363,50.5968704 C83.5766826,51.2477746 83.1553729,51.8768154 83.9149881,52.4727489 C84.5375204,52.4546335 85.2040702,52.6651466 85.9410478,52.9643627 C86.4679995,53.8801262 87.0219903,54.8639785 87.6822519,55.794734 C88.4607317,56.89415 89.0354737,58.1478589 89.0719453,59.5571103 C89.4611852,60.5465846 89.3523993,61.5829091 89.3574298,62.6079895 C89.3630892,63.8073523 89.3668621,65.0067152 89.3555434,66.2067027 C89.3479975,67.0156479 89.4385477,67.8333385 89.1084169,68.6166724 C89.0279279,68.8071962 89.0618842,69.0470687 89.0511942,69.2650779 C88.9166266,72.0204891 87.9054832,74.505419 86.662305,76.920386 C86.0366286,77.5994003 85.7895021,78.5051691 85.2103584,79.2347815 C84.647564,79.9444045 84.3740271,80.8739107 83.9030405,81.6653653 C83.2107091,82.8284974 82.4573821,83.956648 81.721662,85.0935441 C81.6807887,85.1566355 81.5883521,85.1866196 81.5059766,85.2228504 C81.4726491,84.6506543 81.4757932,84.0915764 81.6644394,83.523753 C81.7964917,83.1258394 81.7581336,82.6698317 81.7776271,82.238186 C81.799007,81.7540682 81.7820288,81.2893151 82.012806,80.8120686 C82.1505177,80.5272199 81.9870243,80.0986976 81.939234,79.4721554 C81.9191117,79.5240029 81.9939413,79.3253584 82.0782033,79.1004779 C82.0014872,78.8693507 81.8203869,78.6044914 81.8518279,78.3671175 C81.9977143,77.2564575 81.4399504,76.2494925 81.4217146,75.1613205 C81.4154264,74.7496642 81.1959681,74.3367586 81.0494529,73.9325983 C80.628772,72.7688416 80.2653137,71.5782241 79.7503097,70.4563201 C79.1409826,69.1289003 78.4146948,67.8514539 77.5324596,66.6752038 C77.3739969,66.4634413 77.1658573,66.2879095 77.0048792,66.1211232 C76.869054,65.7444483 76.742661,65.3940094 76.5999188,64.9960958 C76.6093511,64.9479964 76.6055782,64.8305588 76.6539973,64.7406066 C77.2425734,63.6411906 77.5154815,62.4437018 77.8695074,61.259331 C78.3775944,59.559609 78.7391662,57.8230315 79.283096,56.1308055 C79.6717071,54.9201986 80.0615758,53.6945997 80.218781,52.397164 C80.3451739,51.3589655 80.4960908,50.2745416 80.9695927,49.2432145 C82.0813474,49.3712715 82.9063599,49.9465909 83.6760363,50.5968704 L83.6760363,50.5968704 Z M81.3701514,85.8912453 C81.133086,85.5651685 81.2003698,85.4077521 81.4468675,85.3190493 C81.4242299,85.4858356 81.4015924,85.6576194 81.3701514,85.8912453 L81.3701514,85.8912453 Z M71.4196952,70.4806821 C70.8304904,70.5150389 70.1934952,70.5993691 69.5697052,70.8086329 C69.0157143,70.994784 68.4133042,70.5956211 67.8259858,70.7961396 C67.3185277,70.5194116 66.7582486,70.5924977 66.2149476,70.5643877 C64.9302673,70.4987975 63.683945,70.2420589 62.4269327,69.9734516 C60.5153183,69.5655433 58.5967868,69.1032889 56.6097139,69.1969891 C56.4631987,69.2032358 56.311653,69.1139082 56.1349544,69.0614361 C56.4386747,67.8308399 57.0693817,66.755786 57.4347265,65.5764125 C57.7994424,64.4026611 58.4138,63.3051192 58.9250311,62.1588531 C59.3897295,62.0945123 59.7764541,62.3237655 60.0757727,62.6054908 C60.6781828,63.1726895 61.3824618,63.5749758 62.0565574,64.0366056 C63.8524689,65.2684511 65.7521357,66.3222663 67.6084139,67.450417 C67.8391911,67.5909673 68.0184049,67.8127245 68.2397497,67.9713902 C68.9075572,68.449886 69.6112073,68.860293 70.6298966,68.9952213 C70.9939837,69.3531561 71.3404638,69.6923509 71.6605335,70.0059343 C71.560551,70.2033295 71.5127606,70.2970297 71.4196952,70.4806821 L71.4196952,70.4806821 Z M54.0466414,66.8900896 C52.8562841,69.4837118 51.8948175,72.1772808 50.8610366,74.8377424 C50.2938405,76.2963426 49.7153256,77.75057 49.1380683,79.2047975 C48.4425928,80.9563669 47.7420867,82.7054377 46.9692663,84.6444077 C46.7831354,83.5962145 46.9409694,82.7116844 46.6102098,81.8827498 C46.4297383,81.4323641 46.8799738,80.9607396 46.6730918,80.4791205 C46.9516593,80.0281101 46.8397293,79.5258769 46.8573362,79.0417591 C46.8743144,78.5557672 46.8258952,78.0741481 47.0811963,77.609395 C47.2019299,77.3907612 47.1962705,77.0815504 47.1818076,76.8166911 C47.1289867,75.8828123 47.3188905,74.9845395 47.5515541,74.0918887 C47.8502439,72.944998 48.241999,71.8149733 48.4407063,70.6518412 C48.6324966,69.5255645 49.0110466,68.4542587 49.3405485,67.3810788 C49.7675177,65.9943155 50.0020677,64.5613268 50.4843731,63.1908049 C50.7692288,62.3806103 50.9629055,61.536059 51.1653857,60.6996283 C51.4955165,59.3409751 51.7797434,57.9729519 52.1117606,56.6149233 C52.3224155,55.7528813 52.5978389,54.9870381 53.2958297,54.3936034 C53.4869911,54.2311897 53.5593055,53.9319736 53.6945019,53.6796077 C53.6605456,53.6052722 53.6152705,53.5065746 53.5699955,53.4072524 C54.4679512,52.2572383 55.1753743,50.9922853 55.8475834,49.7042196 C56.5279673,48.3999125 57.3146217,47.173689 58.368525,46.1179998 C58.8810137,45.6045226 59.4714762,45.2109817 60.0908644,44.8973983 C60.6549164,44.6113002 61.3258679,44.5338414 62.0150553,44.346441 C62.2213084,44.4919886 62.4344786,44.6431583 62.7029849,44.8330574 C62.1364176,45.4177468 61.5792826,45.9443421 61.4013264,46.7170566 C60.9762437,48.5629509 60.3864101,50.3501265 59.507319,52.0367305 C59.4350046,52.1766562 59.4167688,52.3453166 59.3746378,52.5008589 C59.118079,53.4359871 58.7898347,54.3436299 58.4238612,55.2444014 C58.0591453,56.1408002 57.8214511,57.0871724 57.4906915,57.9985633 C56.4059761,60.9857263 55.3778545,63.9910048 54.0466414,66.8900896 L54.0466414,66.8900896 Z M42.3021603,55.7859887 C42.3141079,55.5523628 42.2776363,55.2949995 42.5725531,55.2044227 C42.5417409,55.4274292 42.5970771,55.6929131 42.3021603,55.7859887 L42.3021603,55.7859887 Z M8.85708239,84.8998969 C9.09603419,84.6069276 9.28216507,84.2696068 9.53432211,83.9891308 C9.77956212,83.7161508 10.1203828,83.5243777 10.3492735,83.2407783 C11.1340416,82.270044 11.8911415,81.2774464 12.6520143,80.287972 C13.8379699,78.7456664 14.7918906,77.033451 16.132536,75.6129556 C16.2218285,75.3555923 16.3092346,75.1051004 16.3840642,74.8889652 C17.8793994,74.349252 18.6415299,73.1648812 19.3722194,71.964269 C19.4979835,72.0054971 19.6023677,72.0392292 19.7067519,72.0723366 C19.7658611,71.9873817 19.8105073,71.8861855 19.885337,71.819346 C20.4506466,71.3146141 21.0687772,70.8604804 21.5768642,70.3051504 C22.0931259,69.7410751 22.7011953,69.2794453 23.2690203,68.7909548 C24.0154302,68.1500453 24.706504,67.4585377 25.4315341,66.7995128 C26.115062,66.177968 26.763376,65.5239404 27.5324235,64.9836025 C27.9996372,64.655027 28.4561609,64.2508667 28.9001082,63.8635725 C30.2061684,62.7235531 31.5065693,61.5654184 32.9849264,60.6334135 C34.1375544,59.9075491 35.3153353,59.2085455 36.3950201,58.3858575 C37.3690632,57.6437518 38.459438,57.1702533 39.5881708,56.8154418 C40.4924148,56.5312178 41.3796805,56.2207577 42.2524834,55.8603242 C42.2417935,56.1164381 42.2895838,56.4075335 42.1726232,56.5980573 C41.7123266,57.3464097 41.5683267,58.2146984 41.1772003,58.9849143 C40.8998905,59.5314989 40.8451831,60.1018209 41.0897943,60.9188868 C41.6789991,60.410407 41.8865099,59.7126527 42.4952082,59.4734048 C43.1529544,59.2991223 43.6912248,60.0281101 44.3659493,59.71765 C44.9463506,59.8563263 45.4789616,60.1549177 46.1134415,60.1161883 C46.759869,60.0762095 47.4144712,60.0793329 48.1426454,60.1417997 C48.1426454,60.4210263 48.1835187,60.6340382 48.1357284,60.8251866 C47.8376674,62.0270481 47.3421569,63.1714402 47.1321308,64.4039104 C47.0811963,64.7012525 46.9919038,65.1872443 46.416533,65.2403411 C46.1253891,64.9798545 45.8084636,64.6850111 45.4789616,64.4051598 C45.1890753,64.1584158 44.9092502,63.8854359 44.5816347,63.7005341 C43.3994521,63.0327638 42.201549,62.392479 41.0011306,61.7584408 C40.8703359,61.6891027 40.6816897,61.7278321 40.5383187,61.7178374 C40.0390351,62.1650998 40.0384063,62.1650998 39.973009,62.8135053 C41.921095,64.9198863 41.9343002,64.8986476 44.0955564,66.2223194 C44.8249883,66.6683324 45.6443414,67.0256426 46.1549437,67.7233969 C45.6933894,68.9333791 45.6833283,70.2083268 45.221774,71.3677109 C45.2437827,72.7888309 44.443923,74.0737733 44.5288138,75.504888 C44.1464909,76.0964488 44.2753991,76.7654683 44.212517,77.4101259 C44.1439756,78.1041322 43.9157138,78.7700284 43.928919,79.4877721 C43.9559583,81.0138364 43.8999932,82.5405253 43.897478,84.0665896 C43.8949627,85.9624574 43.8911898,87.8601993 44.4074514,89.7042196 C44.5187527,89.5799107 44.6350844,89.4506044 44.7646215,89.3056814 C44.9142808,89.7573164 45.0475907,90.1614767 45.1809007,90.5650123 C44.9457218,91.2821314 44.6583508,91.975513 44.2194341,92.551457 C44.247731,92.9400006 44.2709974,93.2598307 44.2911196,93.5353094 C44.6357133,93.8114127 44.8979314,94.1050067 45.3418787,94.0412906 C45.5632236,93.7495705 45.7889701,93.4528532 46.041756,93.1205297 C46.1926729,93.3322922 46.3027165,93.4878346 46.4140177,93.6440016 C46.4963932,93.5047006 46.5617906,93.3516569 46.6649171,93.229222 C47.3063141,92.4665022 47.6213532,91.5701034 47.9382787,90.6337258 C48.28413,89.6117687 48.4960425,88.5598276 48.8299462,87.5403692 C49.1487583,86.5683855 49.5725833,85.61889 49.7738059,84.6244183 C49.9479892,83.7630009 50.1900851,82.9359403 50.586242,82.1732205 C50.8289667,81.707218 50.75791,81.2206016 50.9346086,80.7745885 C51.4653331,79.6508105 51.9614725,78.5132898 52.4563543,77.3751445 C52.9732448,76.1851516 53.4341702,74.9670488 54.0214886,73.8120374 C54.5754795,72.7244901 54.9332784,71.5319986 55.7174176,70.4938002 C56.5436878,70.9616766 57.3385169,71.4120623 57.8535209,71.7031577 C59.1363148,71.9030515 60.1323666,71.951151 61.0529598,72.237249 C61.7559812,72.4552581 62.4659196,72.382172 63.1425305,72.5545804 C63.8908269,72.7444795 64.6359793,72.8363057 65.400625,72.8562951 C65.8898474,72.8694131 66.3664934,72.9287566 66.8550869,73.0386982 C67.646772,73.2161039 68.4780727,73.2260986 69.2905089,73.0224568 C69.6583689,72.9306306 70.0394341,72.8156917 70.4104382,72.830059 C71.1442718,72.8581691 71.8083063,72.660774 72.4641661,72.3796733 C73.6746456,71.3951963 74.1286541,69.9022394 74.9404614,68.6179217 C75.3969851,68.8434269 75.6736661,69.1532623 75.870487,69.5368086 C76.3175784,70.4063466 76.7621545,71.277134 77.1954118,72.1541681 C77.3148877,72.39529 77.4601453,72.6539026 77.4733505,72.9112659 C77.5079356,73.5946528 77.860704,74.1449855 78.08142,74.6034919 C78.1751142,75.1613205 78.2549744,75.5860949 78.3178565,76.0133679 C78.4907821,77.1833713 78.8033059,78.328388 78.830974,79.5258769 C78.8536116,80.5091045 78.6008257,81.4623481 78.5807035,82.4224631 C78.5555506,83.6274479 78.1002846,84.7612206 78.1367562,85.9637068 C78.1411579,86.1117531 78.0009309,86.2591748 77.9625729,86.4153418 C77.5475513,88.0913265 77.0740495,89.7498204 76.5250891,91.3877003 C76.4049844,91.7450105 76.2653863,92.1085673 76.2314299,92.4783709 C76.1383645,93.4690945 75.7830809,94.364244 75.3265572,95.230034 C75.099553,95.6604304 74.8970728,96.1126901 74.6084441,96.4999844 C74.3128985,96.8966487 74.107903,97.3182997 73.9324621,97.7736827 C73.7614229,98.2171971 73.5142964,98.6313521 73.2734581,99.1117219 C73.3879035,99.2653903 73.4992047,99.4477934 73.6425758,99.6014617 C73.7884622,99.7570041 73.9651607,99.8838117 74.100986,100 C74.37075,99.9737639 74.5851778,99.9525252 74.7518152,99.9362838 C75.2580158,99.5215042 75.7189412,99.14358 76.1194999,98.8150045 C77.2652109,97.0796764 78.3455246,95.3893244 79.8025018,93.9788237 C80.036423,93.7514445 80.306187,93.5140706 80.4275494,93.2267233 C80.7715142,92.4127807 81.3431121,91.7393884 81.861889,91.0628728 C82.3976441,90.3651185 82.6516876,89.5024518 83.2779929,88.8834057 C84.0998613,88.0713371 84.4664637,86.9331917 85.2996509,86.1304932 C85.3713364,86.0617797 85.4140962,85.9393447 85.4260438,85.8368991 C85.4820089,85.3652747 85.7951615,85.076678 86.1139735,84.7649686 C86.3824799,84.5032327 86.6031959,84.1821532 86.7975014,83.8585751 C87.2452216,83.1139707 87.6017629,82.3075241 88.1104787,81.6091451 C88.6669849,80.8464253 88.8675786,79.9381579 89.3184429,79.1354593 C89.6850453,78.4820564 89.976818,77.7830528 90.2170275,77.0628104 C90.5534465,76.0539713 90.7031058,74.9820408 91.3055158,74.0562826 C91.5287471,73.7120905 91.5576729,73.2410907 91.6639435,72.8250617 C91.9814979,71.5751007 92.2940217,70.3238904 92.6065455,69.0832995 C92.6065455,68.4292719 92.7662659,67.7227723 92.5650434,67.1393322 C92.321061,66.4334572 92.3644496,65.7519443 92.3229475,65.05419 C92.2845894,64.4101571 92.3990348,63.7673736 92.1041179,63.1283381 C91.8966071,62.6779523 92.1022315,62.1788425 92.3229475,61.7871756 C92.2254803,61.3773933 92.0846245,61.0169597 92.0626158,60.6496549 C92.0079084,59.723272 91.8601356,58.8274979 91.4771838,57.9735765 C91.3451315,57.6799825 91.1615159,57.3457851 91.1979875,57.0546897 C91.2646425,56.5293438 91.0609047,56.1408002 90.8238393,55.7203985 C90.5572194,55.2469001 90.3440492,54.7440422 90.0881193,54.211825 C90.0535342,53.8788768 90.0139185,53.500328 89.9724163,53.1061624 C89.4108796,52.1985195 88.7229499,51.3720836 87.9570465,50.6118624 C87.4967499,50.1546054 87.0609772,49.6567449 86.4233532,49.4206203 C86.0479473,48.6591498 85.2568911,48.308711 84.7054155,47.7159009 C84.0369793,46.9981572 83.2283161,46.4459506 82.2303779,46.2210701 C81.9794785,46.1648499 81.7549895,45.9949402 81.5015749,45.8687572 C81.5273565,45.3658994 81.420457,44.8730362 81.5965268,44.5188494 C82.0681422,43.5718525 82.1480024,42.5342787 82.3397926,41.543555 C82.5227794,40.6015554 82.8239844,39.6726739 82.8441067,38.6850736 C82.8617137,37.7749321 83.0597921,36.8647906 83.1962462,35.9633944 C83.2924557,35.3256083 83.4534338,34.6990661 83.4314251,34.0462879 C83.4081587,33.3341662 83.7577829,32.6595246 83.7326301,31.9730143 C83.6848398,30.6574632 84.2363154,29.4124996 84.1048919,28.0981978 C84.0891714,27.9389075 84.0898002,27.7465097 84.1646298,27.615954 C84.5136252,27.0056532 84.3947781,26.345379 84.416158,25.6988475 C84.4400532,24.9367524 84.335669,24.1409251 84.5243152,23.4206828 C84.7079308,22.7179311 84.7274242,22.0351688 84.7475465,21.3342912 C84.7645246,20.7358591 84.7349701,20.1293063 84.8223761,19.5408689 C84.9085245,18.9605522 84.9726642,18.3996002 84.8255202,17.8242809 C84.8035115,17.737452 84.9110398,17.6256364 84.9255027,17.5213168 C84.9726642,17.16713 84.9695201,16.8110691 85.0500091,16.4550083 C85.1198082,16.1432989 85.0619567,15.8041041 85.0625856,15.476778 C85.0632144,15.0951057 85.1688562,14.6778274 85.0493803,14.3386326 C84.6727168,13.2735734 84.8607342,12.1860262 84.8079132,11.1090983 C84.794708,10.8373676 84.7664111,10.5631383 84.7827604,10.292657 C84.854446,9.09266952 84.518027,7.93078677 84.465206,6.74516663 C84.4243327,5.82503045 84.3545336,4.91551363 84.0860273,4.03035887 C83.9300798,3.51625699 83.7929969,2.99465909 83.6081237,2.49055189 C83.3735736,1.84776837 83.2830234,1.23871693 83.7011891,0.622169472 C83.8093462,0.461629759 83.8433025,0.207389824 83.6427088,0 C82.8529102,0.236749227 82.1756705,0.717743699 81.6078455,1.27057501 C80.4017677,2.44682512 79.0611224,3.43130212 77.6726866,4.34019427 C77.5179968,4.27397945 77.3721104,4.21151263 77.2444598,4.15779117 C76.7785038,4.36455633 76.245264,4.40515976 76.0031681,4.9142643 C76.0333515,5.01795921 76.0635349,5.12290346 76.1169846,5.30967923 C75.8101202,5.55329981 75.5114304,5.88937127 75.1366534,6.06740169 C74.2657369,6.47968267 73.6388029,7.15120092 73.0213011,7.84333323 C72.5138429,8.41115657 72.026507,8.99584596 71.5159047,9.55992129 C70.8298615,10.3188931 70.043207,11.0072774 69.5011637,11.8680701 C69.0880286,12.5239716 68.6491119,13.1080364 68.0007979,13.4765906 C68.0265796,14.0962614 67.6121868,14.4354562 67.310353,14.8021364 C66.5595413,15.7147765 65.9621618,16.7286129 65.2792627,17.6837305 C64.3945122,18.9199488 63.6040848,20.2142612 62.7652382,21.4773402 C61.5648198,23.2826311 60.5014842,25.1822469 59.1268825,26.8738483 C58.7200356,27.3754568 58.3811014,27.9314114 58.0157566,28.4655027 C57.3718444,29.4075023 56.7379933,30.3557485 56.0871641,31.2933754 C55.908579,31.5507387 55.6243521,31.7500078 55.4979592,32.0261111 C54.6641432,33.8470188 53.3851222,35.3812037 52.3186426,37.0778024 C51.9300315,36.8822813 51.5973854,36.6936315 51.2471324,36.5418371 C49.7901552,35.9121717 48.3124269,35.3986944 46.6762359,35.488022 C45.6361667,35.5454915 44.5904382,35.5036387 43.5472249,35.497392 C42.5555749,35.49177 41.6041695,35.6885405 40.6621963,35.9840085 C38.6889575,36.60243 36.8024958,37.4020052 35.0090997,38.4352063 C32.7472322,39.7388887 30.3973299,40.9063935 28.5121259,42.7666552 C28.3983094,42.8790955 28.2373313,42.9434363 28.1147113,43.0490052 C27.0828168,43.9347846 26.0559529,44.8243121 25.0278313,45.7125902 C24.615325,46.5046694 23.8701727,47.0081519 23.241981,47.7508823 C23.2092823,47.9245401 23.1602343,48.1856514 23.0986099,48.5136021 C22.6527761,49.0545648 22.1044446,49.6011494 21.7013707,50.2383109 C21.2561657,50.9423119 20.4940352,51.3164881 20.0412845,51.9986257 C20.0412845,52.1398007 20.095363,52.3203298 20.0293369,52.4277727 C19.9224374,52.6014305 19.6897738,52.7013774 19.5916778,52.8762845 C18.3522725,55.1013524 17.1248148,57.3332917 15.90113,59.567105 C15.7734795,59.8007309 15.6955057,60.0599681 15.5892351,60.3054627 C14.9641874,61.7421995 14.4869127,63.2314083 13.9687645,64.7493519 L13.9687645,66.1336165 C13.6908259,67.0037792 13.4424417,67.8308399 13.1909135,68.6522785 C12.765202,70.0396664 12.1087134,71.3577162 11.5509496,72.7051254 C11.2818144,73.3541556 10.9919281,73.9944405 10.7561204,74.6547147 C10.5750201,75.1619452 10.5592996,75.7472593 10.2983391,76.199519 C9.98581525,76.7404816 9.96254889,77.3376644 9.77704684,77.895493 C9.11804291,79.8831871 8.57159787,81.9083612 8,83.8604491 C8.16978154,84.3345723 8.31315263,84.7349845 8.4653272,85.1610082 C8.60681182,85.0698067 8.76527459,85.0123372 8.85708239,84.8998969 L8.85708239,84.8998969 Z" id="Fill-1" fill="#1A1919"></path>
            </g>
        </g>
    </g>
</svg>