<?xml version="1.0" encoding="UTF-8"?>
<svg width="100px" height="92px" viewBox="0 0 100 92" version="1.1" xmlns="http://www.w3.org/2000/svg" xmlns:xlink="http://www.w3.org/1999/xlink">
    <!-- Generator: Sketch 61 (89581) - https://sketch.com/ -->
    <title>Csupoort-3</title>
    <desc>Created with Sketch.</desc>
    <g id="Page-1" stroke="none" stroke-width="1" fill="none" fill-rule="evenodd">
        <g id="Home-Images" transform="translate(-9329.000000, -469.000000)">
            <g id="Icons/150px/6" transform="translate(9328.000000, 464.000000)">
                <g id="Group-8-Copy" transform="translate(0.666667, 11.333333)">
                    <path d="M80.1768451,26.4141674 C105.441188,25.5268306 114.018372,66.5640171 55.466603,82.1138013 C-3.08516591,97.6635856 -16.7675595,55.1724184 24.1547869,44.1731501 C65.0771333,33.1738818 54.9125022,27.3015042 80.1768451,26.4141674 Z" id="green" fill="#03EBC3" opacity="0.5" transform="translate(50.081768, 55.948002) scale(1, -1) translate(-50.081768, -55.948002) "></path>
                    <path d="M69.5235735,6.55551171 C77.9103675,1.12114654 92.5917054,19.7945498 77.0175235,39.0864659 C61.4433417,58.3783821 44.5997054,39.9924277 55.4470256,26.4439237 C66.2943458,12.8954196 61.1367796,11.9898769 69.5235735,6.55551171 Z" id="Red" fill="#FF3B59" style="mix-blend-mode: multiply;" transform="translate(67.936002, 26.516001) rotate(30.000000) translate(-67.936002, -26.516001) "></path>
                </g>
                <g id="Group" transform="translate(12.000000, 5.333333)">
                    <polygon id="Path-20" fill="#FFFFFF" points="-5.73920344e-15 15.7659574 35.5744681 85.2978723 76 67.9148936 40.8297872 0"></polygon>
                    <path d="M30.3084186,63.9925956 C30.3229956,63.9475772 30.3375726,63.9025588 30.3527103,63.8575404 C30.2798252,63.868795 30.1906811,63.8710459 30.3084186,63.9925956 L30.3084186,63.9925956 Z M21.1888134,49.3233507 C21.0794858,49.4111365 21.0828497,49.5281844 21.10023,49.6486086 C21.1613413,49.6474831 21.2230133,49.6457949 21.2841246,49.6446695 C21.2914131,49.5270589 21.2880492,49.4116993 21.1888134,49.3233507 L21.1888134,49.3233507 Z M24.7758805,86.942412 C24.4254715,86.7510838 24.0739412,86.563132 23.7207289,86.3779939 C21.9754116,85.4624322 20.290645,84.4309482 18.4971114,83.6071115 C18.2223907,83.48106 17.9644897,83.3206819 17.7738672,83.072518 C17.6510838,82.9127027 17.5271792,82.7506365 17.3174945,82.6752307 C17.0652,82.6741052 16.7955252,82.5902584 16.5000603,82.7883394 C16.4580112,83.080959 16.3436377,83.3983387 16.4978177,83.7438549 C16.6777877,83.9751369 16.894761,84.174906 17.1504194,84.3487896 C17.6527658,84.6886785 18.1865088,84.968918 18.7393141,85.2069528 C19.0162774,85.3262516 19.2758604,85.4641204 19.5388074,85.6098675 C20.5597591,86.1770993 21.5246454,86.8574398 22.657728,87.2074578 C22.8096654,87.2541644 22.9358126,87.3847178 23.0137436,87.4370517 C23.0927959,87.6295053 23.1432548,87.751055 23.178576,87.8377154 C24.142341,88.3649934 24.142341,88.3649934 25.0646176,88.3064695 C25.0528438,88.0211654 25.3606431,88.0172263 25.5591148,87.7921343 C25.3455054,87.3999115 25.1100306,87.1241738 24.7758805,86.942412 L24.7758805,86.942412 Z M53.680981,74.6597049 C53.8962723,74.2967441 54.2421961,74.1183587 54.5516774,73.9461633 C55.0108533,73.6906839 55.285574,73.3057766 55.5715078,72.9383139 C55.4879703,72.6389416 55.2502528,72.5562203 55.0663581,72.4144123 C54.813503,72.4830654 54.5471921,72.5218938 54.3111566,72.6282497 C54.0689539,72.7362939 53.8390856,72.8899192 53.6333254,73.0593009 C52.9067172,73.659171 52.2131877,74.2787367 51.9373457,75.2460696 C51.740556,75.9387902 51.6923397,76.6241953 51.8252148,77.3259195 C51.8364279,77.3861316 51.8980999,77.4367773 51.970985,77.5408824 C52.1660927,77.6269801 52.4088561,77.733336 52.6123736,77.8222474 C53.3361785,77.8706422 53.9747639,77.6185391 54.6402608,77.5684562 C54.8869487,77.5504488 55.1538202,77.4328382 55.3461247,77.2173127 C55.5782356,76.9562059 55.9174316,76.9275067 56.2313981,76.8504127 C56.768505,76.4761973 57.2411367,75.984934 57.8673877,75.8802662 C58.3344129,75.4464014 58.7734053,75.0378595 59.1905322,74.6501385 C59.2292174,74.4458675 59.2432337,74.2742349 59.2964959,74.1161078 C59.3592892,73.9270305 59.489361,73.7582115 59.4461906,73.5415605 C59.3990957,73.3744297 59.3054664,73.24669 59.1417553,73.1774742 C59.0004704,73.4087562 58.7498578,73.1212012 58.5967992,73.2939593 C58.0350234,74.00525 57.8774795,74.0840322 56.7258953,74.5938655 C55.7542811,75.024354 54.73389,75.3513001 53.8637544,75.949482 C53.8132955,76.0862254 53.7684431,76.2077751 53.7247121,76.3253856 C53.4028964,76.3760313 53.1124774,76.4773227 52.8327108,76.245478 C52.8960648,75.6551743 53.3838341,75.3434218 53.680981,74.9106825 L53.680981,74.6597049 Z M65.1250595,68.1432919 C65.9710871,67.75332 66.8737407,67.4837723 67.7528469,67.1647044 C67.9715021,67.0847968 68.2064163,67.0414666 68.4132978,66.9401752 C69.3193154,66.4978694 70.2623362,66.165296 71.2586191,65.9503332 C71.3898123,66.0274272 71.5350218,66.1135248 71.8304867,66.0521873 C71.877021,66.0268644 72.0272764,65.9553977 72.1685613,65.8681746 C72.3081642,65.7820769 72.4382361,65.6802228 72.5834456,65.5766805 C72.5610194,65.3155737 72.5823243,65.0702235 72.5139244,64.8535724 C72.2834954,64.1175216 72.0760533,63.3668399 71.7581622,62.6679292 C71.3287009,61.7242311 70.927833,60.763651 70.361572,59.8829786 C70.0930185,59.4648702 69.8597863,59.0225645 69.5945967,58.5977033 C69.26325,58.0659235 69.0563685,57.4559242 68.7917396,56.8819397 C68.5663565,56.3951782 68.3426554,55.9078541 68.1054985,55.4267199 C67.8829187,54.976536 67.6911749,54.499341 67.3990739,54.0964263 C67.0766976,53.6507442 66.981947,53.1082725 66.6819969,52.6620276 C66.5889283,52.5230333 66.5418333,52.3508379 66.4409155,52.2191591 C66.0092116,51.6502391 65.773176,50.9884687 65.5074258,50.3368273 C65.2427969,49.6868742 64.9804107,49.0296056 64.6367295,48.4207318 C64.4203169,48.0363872 64.2263304,47.6531681 64.124852,47.2316834 C64.076075,47.0285378 63.9880523,46.8602816 63.8983476,46.6807707 C63.7032398,46.2902361 63.5058895,45.8985761 63.3511488,45.4911596 C62.8033895,44.0528217 62.0403388,42.7146499 61.4286648,41.3061368 C61.1231081,40.6021616 60.6801911,39.957273 60.2978247,39.2870616 C60.2154085,39.1418773 60.1161727,39.0062594 60.0388024,38.8582614 C59.5745805,37.9680226 59.1086767,37.0794719 58.7549037,36.1363365 C58.6965957,35.9804603 58.621468,35.820645 58.5160649,35.6945935 C58.2957277,35.4317986 58.1684592,35.124548 58.0333414,34.8178602 C57.8584173,34.4200101 57.7064799,34.0080917 57.4900673,33.6327509 C56.9540816,32.70087 56.6120824,31.6812033 56.1529064,30.7144332 C55.7060649,29.7735487 55.2541774,28.8332269 54.8695684,27.8658941 C54.5219627,26.9936626 53.9512164,26.2300381 53.6910728,25.3206664 C52.7284291,23.4107609 51.860536,21.4524606 50.7779123,19.6027672 C50.0838221,18.4165324 49.3678664,17.242115 48.7634809,16.0046717 C48.5420224,15.5511114 48.3340196,15.0834828 48.0486465,14.6715644 C47.3360547,13.645145 46.8028723,12.5230614 46.2652047,11.404917 C45.3597478,9.51977155 44.2502126,7.76349131 43.026304,6.07530139 C42.8491372,5.83163931 42.674213,5.58516359 42.5318067,5.38651991 C42.2290533,5.27791302 41.9851687,5.18337439 41.7356774,5.10628038 C41.6897038,5.09221213 41.6224252,5.14961059 41.5652385,5.17437071 C41.4351666,5.3825808 41.6975529,5.54746068 41.5994384,5.82995112 C41.5523434,5.93236798 41.4250749,6.10512608 41.5338418,6.38986745 C41.910041,6.78828027 42.0687062,7.39434045 42.4050988,7.89685831 C43.5807912,9.65764039 44.614638,11.5062084 45.6053144,13.3710955 C46.4255519,14.9135383 47.2642909,16.4436011 48.130502,17.9595957 C48.3289737,18.3062373 48.4326948,18.7254712 48.6872319,19.017528 C49.0746441,19.4620847 49.2854502,19.9899254 49.5500791,20.493006 C49.9105799,21.1767229 50.1948317,21.9088346 50.6164438,22.5497841 C51.3049275,23.5975873 51.7893329,24.7444309 52.3118629,25.86764 C52.933068,27.2029982 53.5537124,28.5394819 54.1681897,29.8787792 C54.6851131,31.0070528 55.193066,32.1398282 55.7071862,33.26979 C56.095159,34.1245769 56.4511746,34.9968083 56.8845605,35.8273977 C57.7384372,37.4621283 58.5121403,39.1385009 59.4159153,40.7473459 C59.8425733,41.5075941 60.193543,42.3106098 60.6162765,43.0731089 C60.8422202,43.4816508 61.0171444,43.9177666 61.2621504,44.3099893 C61.5301432,44.7404778 61.5273399,45.2806985 61.8626113,45.6723586 C62.2208695,46.6481324 62.6183735,47.6047733 63.0758675,48.5394678 C63.8148101,50.0470214 64.4982478,51.5804606 65.2315838,53.0908278 C65.7429007,54.1448211 66.3024338,55.1757424 66.8339342,56.2196065 C68.1767016,58.8543082 69.4841478,61.5064546 70.7405744,64.1839238 C70.7658039,64.2385086 70.7439383,64.3156026 70.7439383,64.4123921 C70.7030106,64.4703533 70.6469451,64.5496983 70.6133059,64.598093 C70.4181981,64.6948826 70.2281363,64.7145781 70.0896546,64.6329823 C69.5688066,64.325169 69.0838405,64.4450305 68.5534614,64.6324196 C66.8501932,65.2339779 65.2091577,65.9869106 63.5412107,66.6745666 C62.306089,67.1832745 61.0872262,67.732499 59.8610749,68.2614651 C59.7080163,68.3278673 59.5454265,68.3740111 59.3951711,68.4460406 C58.7896643,68.7358465 58.2026591,69.0712336 57.579772,69.3143329 C56.9294128,69.5675614 56.2997979,69.8641201 55.6584092,70.1347932 C55.3500493,70.2647838 55.0478565,70.4122191 54.7473458,70.5607798 C54.2371502,70.8123201 53.7493808,71.1302625 53.2150772,71.3103361 C52.6706817,71.4943488 52.2328106,71.8623742 51.6856118,72.0486379 C51.0935607,72.2506579 50.577198,72.6608881 49.9442191,72.8032588 C49.7900392,72.8387107 49.6644526,72.9855833 49.5153185,73.0604263 C49.034277,73.3001493 48.5689338,73.5955826 48.0621022,73.7486451 C47.1656157,74.01763 46.3162242,74.3805909 45.4853343,74.8003874 C44.9173914,75.0885052 44.3253403,75.2871488 43.7058171,75.4503405 C43.0066811,75.6343532 42.276709,75.8436888 41.7967888,76.4548135 C41.7900609,76.5628577 41.7844544,76.65402 41.7794085,76.7361785 C41.3791012,76.8357817 40.9944923,76.9854679 40.6009128,77.0141671 C40.209576,77.0417409 39.9135505,77.2859657 39.5642628,77.3596833 C39.1633948,77.4435301 38.8897955,77.7935481 38.5511602,77.8340647 C38.3044722,77.7507807 38.1777643,77.6275428 38.1138497,77.4744803 C37.5862739,76.2083378 37.0463637,74.9500736 36.4459028,73.7148813 C35.9631793,72.7227884 35.5443704,71.6986198 35.0515552,70.7087778 C34.7975787,70.1983817 34.4914614,69.7194985 34.2425308,69.2091024 C33.8450268,68.3942694 33.452008,67.5771855 33.0612319,66.7595389 C32.6564394,65.9115048 32.2622993,65.0584061 31.8513396,64.2137485 C31.6752941,63.8519131 31.4493504,63.5142751 31.2772294,63.1513143 C30.3885921,61.2717962 29.5027581,59.3900271 28.6292585,57.5037563 C27.9828239,56.105935 27.3296615,54.7103647 26.7263973,53.2928479 C25.7738454,51.0554335 23.8659384,47.1692203 22.5444758,44.8265755 C21.4562456,42.8980998 20.3730612,40.9656851 19.3223947,39.0158258 C18.6249406,37.7209841 17.8052638,36.4902937 17.2692782,35.109917 C16.6850762,34.3204069 16.3957785,33.3767087 15.9287534,32.5230474 C15.1090766,31.0267484 14.3976061,29.4696745 13.6407226,27.939049 C13.6104473,27.8782742 13.5706408,27.8225639 13.5470933,27.7601009 C12.9410259,26.1591341 12.0815426,24.6769033 11.3902557,23.1147649 C10.9422928,22.1035392 10.4074284,21.1311418 10.0099244,20.0934677 C9.85630512,19.6911158 9.65895475,19.2904521 9.25640486,19.0670483 C9.04391683,19.0518545 8.84208123,19.0192162 8.68958322,19.165526 C8.74733063,19.5425551 8.80283542,19.9077668 8.86002217,20.2847959 C9.28163431,20.8492141 9.43469298,21.5543147 9.78958724,22.1648768 C10.0396391,22.5948025 10.2067141,23.0719975 10.4208841,23.5238696 C10.8957585,24.5227153 11.3717541,25.5221238 11.8572808,26.5159049 C12.2110538,27.2390129 12.5911775,27.9486154 12.9421472,28.6728489 C13.438887,29.6987056 13.899745,30.7408815 14.4105012,31.75886 C15.3591285,33.6501955 16.3245754,35.53309 17.2984322,37.4114826 C17.7923688,38.3647472 18.3053676,39.3084454 18.835186,40.2420144 C19.7277479,41.8142819 20.6068541,43.3921768 21.327295,45.0539184 C21.3940129,45.2069809 21.4618521,45.3724235 21.5717404,45.4928477 C22.0325983,45.9964911 22.2977879,46.6042394 22.5355054,47.2305579 C22.7608884,47.8253635 22.9683306,48.4280473 23.2273529,49.0076592 C23.7745517,50.2338478 24.3509044,51.4465309 24.9138015,52.665404 C25.2513155,53.3969529 25.5849049,54.1307528 25.9235402,54.8617391 C26.2604935,55.5887862 26.5548371,56.3349661 26.8783347,57.0670778 C27.2562158,57.9241156 27.7849129,58.7051848 28.0831811,59.5982372 C28.1459744,59.7856263 28.2777282,59.9499435 28.378646,60.1243898 C28.4442425,60.2380612 28.5221735,60.3466681 28.5759963,60.4654041 C28.9084644,61.1980785 29.235326,61.9335666 29.5638695,62.6673665 C30.0892027,62.8918958 30.3061759,63.3201333 30.3880315,63.8389703 C30.6296736,63.9689609 30.4777362,64.1642282 30.4452182,64.3476782 C30.6795718,64.4669769 30.854496,64.6352332 30.9772793,64.887899 C31.4162717,65.7910806 32.0150507,66.6109781 32.3755515,67.5580527 C32.4344202,67.7128034 32.5375806,67.8495468 32.6127083,67.9986703 C32.749508,68.2682179 32.8924749,68.5343892 33.0113336,68.8112523 C33.5904897,70.1657434 34.1909506,71.510668 34.8648572,72.8207034 C35.2163876,73.5016066 35.5297934,74.1982664 35.7865731,74.8876106 C35.7389175,75.0845661 35.5471737,75.268016 35.8146059,75.3940675 C35.9289794,76.1250538 36.3091031,76.7615014 36.5894303,77.42496 C36.9106853,78.1863337 37.1910125,78.9730302 37.6199132,79.7012028 C37.7494243,79.7788595 37.8884666,79.8610181 38.038722,79.9504921 C37.9798533,80.142383 37.9237879,80.3247076 37.8677224,80.509283 C37.9663976,80.6268936 38.0499351,80.7264968 38.1289874,80.8204727 C38.2147675,80.7895225 38.2775608,80.7664506 38.3409148,80.7433787 C38.7815892,81.2098818 38.8219563,82.0078329 39.5440792,82.2458677 C39.7021838,82.1428881 39.8412261,82.053414 39.9712979,81.9690045 C39.7773115,80.9335814 39.2256275,80.0399662 38.9211921,79.0411205 C39.6410724,78.6517114 40.3547855,78.37935 41.1127903,78.2347284 C41.3449013,78.18971 41.5988777,78.18971 41.7799691,78.0327084 C42.0238538,77.8228101 42.3333351,77.7490925 42.6080557,77.700135 C43.2556116,77.5847753 43.7988858,77.2567038 44.3668287,76.9753388 C44.6337002,76.84366 44.8383391,76.5836787 45.1702466,76.5859296 C45.7976189,76.1340575 46.5668368,75.9506075 47.1936484,75.4919826 C47.4616413,75.2961525 47.7722438,75.1312726 48.0895742,75.0384222 C48.6132255,74.8847969 49.0802506,74.6152493 49.5472758,74.3597699 C50.2828544,73.9574179 51.0666493,73.6670493 51.8078345,73.279891 C52.2468269,73.0502972 52.7099275,72.8617827 53.1719068,72.6817091 C53.8542232,72.417226 54.5651331,72.2168941 55.227266,71.9118945 C55.7811925,71.6569778 56.3934272,71.5776329 56.9221243,71.3013325 C57.4020445,71.0509176 57.9066335,70.8944787 58.4061767,70.7115914 C58.7184612,70.5973573 59.0374736,70.500005 59.3480761,70.381269 C60.3146444,70.0098672 61.2929864,69.6649137 62.2388104,69.2468053 C63.1829525,68.8292597 64.184842,68.5765939 65.1250595,68.1432919 L65.1250595,68.1432919 Z M5.46021363,21.1896657 C5.38340397,21.2583188 5.31051889,21.2667597 5.24436166,21.174472 C5.32173198,21.1063817 5.3940564,21.0985035 5.46021363,21.1896657 L5.46021363,21.1896657 Z M10.7718538,35.8442796 L10.6714967,35.785193 C10.7813849,35.7294827 10.7729751,35.7908203 10.7718538,35.8442796 L10.7718538,35.8442796 Z M10.9899484,36.2713917 C10.7858702,36.2280615 10.841375,36.0569916 10.826798,35.9213737 C10.9955549,35.9793348 10.9910697,36.1262074 10.9899484,36.2713917 L10.9899484,36.2713917 Z M11.4104392,36.8110497 C11.7838351,37.5476633 12.1908702,38.2668322 12.5009121,39.0377722 C12.7229313,39.5903731 13.0262453,40.1108983 13.208458,40.6820692 C13.2493858,40.8114971 13.2516284,40.947115 13.1378156,41.0545965 C12.8815965,41.0213954 12.7683443,40.8047443 12.6046332,40.6443663 C12.4409221,40.484551 12.2452537,40.357374 12.0636017,40.2155661 C12.2138571,39.8199669 11.973897,39.4440633 12.0288411,39.0602814 C11.589288,38.4424039 11.2848526,37.779508 11.0774105,37.0693428 C11.0039648,36.8183652 10.9579911,36.5690758 11.0106926,36.3102201 C11.2775641,36.3642421 11.3212952,36.6343525 11.4104392,36.8110497 L11.4104392,36.8110497 Z M15.1264569,45.4754031 C15.7986816,46.0246276 16.4305391,46.6160568 17.0388492,47.3594231 C16.6374206,47.4618399 16.390172,47.6621718 16.023504,47.6514799 C15.7061736,47.3718031 15.6119836,46.9345619 15.4006169,46.5693502 C15.2027059,46.2283358 14.9481688,45.9188343 14.8752837,45.5181706 C14.9414409,45.3915564 15.0591784,45.4202556 15.1264569,45.4754031 L15.1264569,45.4754031 Z M18.4343181,49.5484427 C18.9495595,50.2985617 19.339775,51.1426567 19.6739251,52.0143254 C19.6913054,52.0599065 19.6346793,52.1341869 19.5965548,52.2405428 C18.7763173,51.4949256 17.996447,50.7403047 17.2995535,49.8922707 C17.6247331,49.453904 17.9835519,49.4263303 18.4343181,49.5484427 L18.4343181,49.5484427 Z M20.840647,57.0023639 C21.1086398,57.3158045 21.2846853,57.6540052 21.359813,58.0692999 C21.4394259,58.5116057 21.8206709,58.7935334 22.0415688,59.1519924 C22.3303058,59.3303778 22.5422332,59.0062453 22.8023769,59.0495755 C23.0658845,59.3433206 22.9868322,59.7451098 23.1415728,60.0720559 C23.4280672,60.6758651 23.6893322,61.2914917 23.9803119,61.8936128 C24.4753697,62.9177813 24.9872472,63.9323835 25.5422951,64.9261646 C26.0009105,65.7483131 26.4034604,66.6014117 26.8374069,67.4370657 C27.3633008,68.449417 27.8897553,69.4612054 28.4285442,70.4662412 C28.62197,70.8275138 28.758209,71.2017293 28.7985761,71.5117935 C29.9299768,73.4819111 31.0933348,75.3338554 32.0806473,77.2758366 C33.0477762,79.1795521 34.0221936,81.0821421 35.0218405,83.1130346 C35.0498732,83.1338556 35.1821876,83.2345842 35.3901904,83.3949623 C35.5073672,83.5120101 35.3952363,83.7843714 35.5701605,84.0949984 C35.6122096,84.1281994 35.744524,84.2334299 35.9867268,84.4258836 C35.9418744,84.4078762 36.0338217,84.4444537 36.1263297,84.4793429 C36.7492168,84.7173777 37.3782711,84.9475343 38.0347974,85.0578294 C38.3840852,85.1157905 38.6262879,85.369019 39.1364834,85.4871923 C39.2205816,85.4871923 39.4896957,85.4719986 39.7554459,85.4922569 C39.9819503,85.5097015 40.1445401,85.1641853 40.4136543,85.4061592 C40.3547855,85.4748123 40.3093725,85.57329 40.2342448,85.6070538 C39.8081475,85.8006329 39.3859747,86.0161585 38.940815,86.150651 C38.4821997,86.2890825 38.0392827,86.5389346 37.5150708,86.3976894 C37.2633369,86.3301618 37.0138457,86.5856412 36.7335185,86.5096727 C36.4077783,86.4156968 36.1610903,86.2125513 35.9026286,85.9919611 C35.6581833,85.783751 35.3128201,85.6937142 34.9461521,85.5209561 C34.1360064,83.8884765 33.3023133,82.2087275 32.444512,80.4817092 C32.5022594,80.2746246 32.5723412,80.0219588 32.6323312,79.806996 C32.5005774,79.3033527 32.1406373,79.0343677 31.8087299,78.7575046 C31.2570459,78.2977542 30.7776863,77.7609098 30.4822214,77.122774 C30.1996516,76.5139002 29.7948591,75.9838086 29.5178958,75.3698702 C29.2571915,74.7925092 28.9925626,74.2112091 28.7015829,73.6439773 C28.1358826,72.5415893 27.5735462,71.4346995 27.0891407,70.2951713 C26.8547872,69.7442586 26.6086599,69.1984106 26.3720637,68.6486234 C25.946527,67.6576559 25.4352101,66.7156459 24.9138015,65.7747614 C24.3301602,64.7218936 23.7672632,63.6572085 23.2032448,62.5942116 C22.4317843,61.1412428 21.6614451,59.688274 20.9045616,58.227427 C20.5653656,57.5729721 20.259809,56.9010725 19.9391146,56.2370511 C20.3887595,56.3529735 20.5855492,56.7046797 20.840647,57.0023639 L20.840647,57.0023639 Z M30.0135143,79.8368207 C29.8705474,79.857079 29.7376723,79.7372175 29.6014333,79.6499943 C28.6146815,79.0259268 27.6329756,78.3945438 26.6523909,77.7603471 C26.6131451,77.735587 26.5935222,77.6787512 26.5699747,77.629231 C26.7572333,77.6331701 26.9433706,77.635421 27.1171735,77.7316478 C28.1039253,78.2797468 29.1366508,78.7485009 30.0477142,79.427716 C30.0976125,79.4648562 30.1234026,79.5346347 30.1609664,79.5892195 C30.1738615,79.6910736 30.1699369,79.7856122 30.0135143,79.8368207 L30.0135143,79.8368207 Z M26.4006571,77.5065559 C26.4012177,77.4986776 26.4600865,77.4834839 26.4634504,77.4885485 C26.4853159,77.5245632 26.5015749,77.5639543 26.5195158,77.6027827 C26.4589652,77.6033454 26.3961719,77.6072845 26.4006571,77.5065559 L26.4006571,77.5065559 Z M25.1722632,77.0293608 C25.3387776,77.0406154 25.5120198,77.0513073 25.7575864,77.0670638 C25.4688494,77.2471373 25.2933646,77.2510765 25.1722632,77.0293608 L25.1722632,77.0293608 Z M24.3907109,76.7676914 C24.3307209,76.7541859 24.2752161,76.7209848 24.2180293,76.6950992 C24.3054914,76.6219443 24.3895896,76.616317 24.4680812,76.7091675 C24.4422911,76.7299885 24.4108945,76.772756 24.3907109,76.7676914 L24.3907109,76.7676914 Z M74.4139823,67.2862541 C74.5092936,67.4978406 74.5519033,67.7336244 74.6315162,67.9542146 C74.6516998,68.0104876 74.717857,68.0498787 74.734116,68.0667606 C75.0049121,68.1990021 75.2218854,68.0453768 75.4343734,68.0386241 C75.6188287,67.8833106 75.7931923,67.7358754 75.9692378,67.5873146 C76.0297884,67.3852946 75.9939065,67.1827118 75.9227034,66.9970109 C75.7421727,66.5271314 75.5532322,66.0600655 75.3446687,65.6020033 C74.85746,64.5333791 74.3186711,63.4867013 73.877436,62.3989443 C73.6621447,61.8694154 73.3958339,61.3646466 73.1917556,60.8311786 C72.3558199,58.6432845 71.5170808,56.4559531 70.3968932,54.3912968 C70.0935792,53.8313805 69.8480125,53.2382631 69.5239543,52.6918523 C69.3176334,52.3435224 69.1146765,51.9951926 68.9829227,51.6181635 C68.7076414,50.8241515 68.2024917,50.1398719 67.9378628,49.3430462 C67.9064662,49.2479449 67.8627352,49.1522808 67.8038664,49.0718104 C67.1232319,48.1489332 66.8081441,47.0212224 66.1476932,46.0870906 C66.1297523,45.6475985 65.7350515,45.4022482 65.6038584,45.0201546 C65.3779147,44.3595096 65.0146106,43.7607649 64.7533456,43.1113745 C64.3407039,42.087206 63.8007937,41.1119949 63.2726572,40.1390348 C62.9547662,39.5537956 62.6396784,38.9719328 62.3722462,38.3596826 C62.0930403,37.7181705 61.7308575,37.1160494 61.4735171,36.4587808 C61.2060849,35.776752 60.9066955,35.0924724 60.5114341,34.4796595 C59.9451731,33.6018007 59.5487904,32.6457225 59.0873718,31.7200317 C58.5642812,30.6733539 58.1280921,29.5816578 57.5803327,28.5490483 C57.046029,27.5445753 56.4982696,26.549106 55.9987265,25.5260629 C55.7055042,24.9239418 55.3203346,24.3645882 55.0579483,23.7506498 C54.6862344,22.8846084 54.2337863,22.0658363 53.7847021,21.2419996 C53.4483094,20.6252476 53.1298577,19.9978036 52.7962683,19.3793634 C52.5736885,18.9651941 52.3191514,18.5667813 52.1139518,18.1447338 C51.4103305,16.6973923 50.6035488,15.3074493 49.796767,13.9186317 C49.6274494,13.6282631 49.4598137,13.3440844 49.3359091,13.0306438 C49.2377945,12.7819172 49.1049194,12.5455706 48.9770902,12.3097868 C48.3188819,11.1016055 47.6326409,9.9074925 47.0024653,8.68411754 C46.2321261,7.18838128 45.5066392,5.66844762 44.7626508,4.15920584 C44.5697856,3.76810851 44.3393567,3.38939123 44.1980717,2.97972382 C43.9979181,2.40011194 43.6794664,1.89703135 43.3683032,1.40070351 C43.1109628,1.26002102 42.873806,1.13396951 42.6422557,0.998351583 C42.5895541,0.967401435 42.5570362,0.900999298 42.5166691,0.852041791 C42.4555577,0.563924045 42.5228363,0.226286062 42.1780338,0.0377715209 C41.8601427,-0.0258169659 41.5299172,-0.00837233678 41.2013737,0.0844781086 C40.3357233,0.330391106 39.4639056,0.557734015 38.604983,0.826156212 C37.6171099,1.13396951 36.6432531,1.48567574 35.6234227,1.6876958 C35.1990073,1.77210529 34.784123,1.9110996 34.3692387,2.03771384 C33.0915072,2.42824844 31.8367626,2.88856156 30.5511819,3.25827515 C29.525745,3.55370839 28.5266587,3.93805296 27.4888874,4.20141058 C26.1304216,4.54636406 24.7713953,4.89469391 23.4297492,5.2981713 C22.6033445,5.54746068 21.757317,5.75341985 20.9824925,6.16421273 C20.2721434,6.54180454 19.5455352,6.88900893 18.8234123,7.24352881 C18.7707108,7.26941439 18.6944618,7.24746792 18.6086816,7.24746792 C18.4724426,7.19794769 18.4758065,6.93627825 18.1495056,6.97229297 C18.0317682,7.03081688 17.8237654,7.13379647 17.6174446,7.23902697 C16.9586756,7.57328858 16.3212115,7.96100953 15.6377737,8.2328081 C14.3959241,8.72801048 13.1675303,9.25753938 11.910543,9.7178525 C9.93423608,10.4409605 7.97643077,11.2186533 6.07525155,12.128025 C5.23090596,12.5326278 4.32993427,12.8201828 3.56912619,13.3570272 C3.15255994,13.4110493 2.74776743,13.4256803 2.39791905,13.6670914 C1.79297291,14.0851998 1.18073826,14.4920536 0.57411015,14.901721 C0.443477665,15.4908993 0.337513975,16.0767012 0.283130494,16.6765713 C0.227625704,17.2955743 0.594854365,17.8493006 0.502907036,18.49025 C0.340317247,18.7181557 0.167635679,18.9595668 0,19.1942252 C0.114934161,19.488533 0.26238628,19.7597689 0.321254996,20.0495748 C0.386290912,20.3697681 0.657087008,20.5357735 0.780430985,20.8177012 C1.34725263,22.1091665 1.95163812,23.3837499 2.55378099,24.6594587 C2.78196735,25.1434065 3.08079617,25.5964041 3.27814653,26.0910438 C3.96438757,27.8124348 4.89227067,29.4111506 5.78371124,31.0239347 C6.31969689,31.9929557 6.81195149,32.9839232 7.28738646,33.9782671 C7.70675598,34.8561258 8.10762391,35.7379237 8.59651458,36.5797677 C9.23509999,37.6793421 9.7974364,38.8211212 10.3311794,39.9747176 C11.2198167,41.895315 12.230116,43.7540121 13.21014,45.6273402 C13.5840965,46.3420073 13.8991843,47.086499 14.2613671,47.8067934 C14.5316025,48.345326 14.847251,48.8557221 15.074316,49.4218284 C15.2957745,49.974992 15.6360918,50.4803235 15.8429733,51.0475553 C15.8766125,51.139843 15.9556648,51.2146861 16.0010778,51.3041602 C16.2264609,51.7487168 16.4568899,52.1910226 16.6671353,52.6428948 C17.2188193,53.8274414 17.7402279,55.0254935 18.3692822,56.1723372 C18.5307507,56.4660822 18.728101,56.7406944 18.8749925,57.0406295 C19.3756569,58.0636726 19.8544558,59.0974076 20.3556809,60.1198879 C20.6511458,60.722009 20.9948269,61.3016209 21.2796394,61.9088065 C21.5795895,62.5458168 21.9384084,63.1473752 22.2854535,63.7568117 C22.5013054,64.1360917 22.7278098,64.5103072 22.9234782,64.8991536 C23.4516147,65.9480822 24.0268462,66.9745017 24.4434124,68.0757643 C24.5891826,68.4623597 24.8498869,68.7684849 25.0971355,69.0734845 C25.1184404,69.4386962 25.2900006,69.7217494 25.4593183,70.0160572 C25.6247113,70.3047377 25.7183406,70.6344974 25.8635501,70.9366834 C26.0093203,71.2383067 26.1534085,71.5466827 26.3462736,71.8173558 C26.5497912,72.1032227 26.5621256,72.4509898 26.7235941,72.7486739 C26.8822593,73.0412935 27.0229835,73.3485441 27.1317505,73.6636729 C27.2343502,73.9585434 27.5090709,74.1965782 27.4524448,74.5702309 C26.7073351,74.6433858 25.9784843,74.7227307 25.2485122,74.7851937 C24.3497831,74.8605995 23.4353557,74.6962824 22.5484004,74.9579518 C21.4764291,74.9697691 20.4117463,75.0401104 19.3453816,75.1751656 C18.8155631,75.2421305 18.2829414,75.2865861 17.7665787,75.4193904 C16.6704992,75.7001926 15.5615247,75.9387902 14.5220714,76.4148597 C14.2697769,76.5307821 14.0477577,76.6472672 13.8902138,76.8836138 C13.8313451,77.1464087 13.8262992,77.410329 13.9216105,77.7248951 C14.2266065,77.8548857 14.6263531,77.8351902 14.9599425,78.1300607 C14.8466903,78.275245 14.8265068,78.4643223 14.890982,78.7085471 C15.1292602,79.0720706 15.4723807,79.3787585 15.9197829,79.5689612 C16.2561756,79.7118946 16.6273288,79.8120606 16.91102,80.0275861 C17.3987893,80.396737 17.934775,80.6640337 18.4707606,80.9403341 C19.6021613,81.5227597 20.7290767,82.1136261 21.8604774,82.6949262 C22.0667982,82.8012822 22.3028338,82.8547415 22.4979415,82.9751657 C23.4919818,83.5902296 24.5123729,84.1343895 25.5994819,84.5817598 C26.6456631,85.012811 27.6217625,85.614932 28.6247733,86.1500882 C28.9477102,86.3228463 29.2123391,86.6008349 29.6350726,86.6948108 C29.7757968,86.6267205 29.952403,86.5411856 30.0746257,86.4820989 C30.1929237,86.3059644 30.2075008,86.1787875 30.151996,85.9947748 C29.661984,85.5412144 29.0379756,85.2198956 28.4257409,84.877193 C27.6369001,84.4365755 26.8127381,84.0516682 26.1141627,83.4641781 C25.8310322,83.2261433 25.5893901,82.9262082 25.2799089,82.7354428 C24.0274068,81.9633772 22.8932029,81.0039226 21.557724,80.3640987 C21.4080293,80.292632 21.2375903,80.2161007 21.1428397,80.0911746 C20.9651123,79.8576417 20.7100145,79.7771713 20.4689331,79.6753172 C19.5152599,79.2740907 18.6238193,78.7349954 17.6398708,78.3973574 C17.1672391,78.2347284 16.713109,78.014701 16.2561756,77.8081791 C16.1804872,77.7738526 16.130589,77.6832531 16.0700383,77.6151627 C16.5202438,77.3557442 17.0141804,77.4255227 17.5013891,77.4176445 C17.7677,77.564517 17.9745815,77.8019891 18.303125,77.8256238 C18.6098029,77.848133 18.8576122,78.0456512 19.1188772,78.1930864 C19.2938014,78.2921269 19.4597551,78.4215548 19.6470137,78.4834551 C20.5423788,78.7794511 21.3200065,79.3202346 22.1766865,79.6961382 C22.4811219,79.8300679 22.7692983,79.996636 23.0462616,80.1935915 C23.5357129,80.5407959 24.0475904,80.8666165 24.5830154,81.1361642 C25.1789911,81.4355365 25.7581471,81.7551671 26.327772,82.1029343 C26.8076922,82.3944284 27.3234943,82.6352768 27.843221,82.8502397 C28.6180454,83.170433 29.3625945,83.5328311 30.0673372,83.9953952 C30.5360443,84.3032085 31.0249349,84.6121472 31.5581173,84.6853021 C31.8939493,84.6037063 32.0542965,84.4151917 32.1568963,84.1642142 C31.8776903,83.7207829 31.482429,83.4669917 31.0501644,83.2779145 C30.4020479,82.9942985 29.8055115,82.624585 29.233644,82.2154803 C28.471154,81.6701949 27.718195,81.1125295 26.9657968,80.5548641 C26.1853658,79.9763777 25.4178299,79.3793212 24.5583466,78.9167572 C24.5028418,78.8869325 24.3744519,78.8216558 24.5118123,78.6539623 C24.9838833,78.9336391 25.5080952,79.12553 25.9981072,79.4085832 C26.632768,79.7760458 27.231547,80.2054088 27.9312437,80.4687664 C28.4565769,80.6668474 28.941543,80.9763489 29.4343583,81.2537747 C29.7561739,81.4344111 30.0409864,81.6898905 30.3756971,81.8333866 C30.7373192,81.9881374 31.1376265,82.0517258 31.5351305,82.1586445 C31.8092905,82.699428 32.0890571,83.2345842 32.353686,83.7776187 C32.6328919,84.3487896 32.903688,84.9238996 33.1666349,85.5029488 C33.4144442,86.0487968 33.5288177,86.654857 33.9083807,87.1748195 C34.5200547,87.3385739 35.0644502,87.6508891 35.5488556,88.0830657 C35.7467667,88.2597629 35.9799989,88.4117 36.2210803,88.5236833 C36.956659,88.8652603 37.7023294,89.2062747 38.5320979,88.6125946 C38.6610485,88.4443383 38.820835,88.2372537 38.9638019,88.0509901 C39.1628342,88.0836284 39.3271059,88.109514 39.432509,88.1269586 C39.8967309,87.9480105 40.2914316,87.7516177 40.7091191,87.644699 C41.6986742,87.3909078 42.5682493,86.9002073 43.4142768,86.3532338 C43.498375,86.2992117 43.5650929,86.1990457 43.6547976,86.1725974 C44.5624971,85.9092398 45.2806955,85.2632258 46.1698934,84.9469716 C46.829223,84.7134386 47.4341692,84.3307822 48.0693907,84.0263453 C48.4870782,83.8260134 48.9518608,83.7145929 49.2271421,83.3617612 C50.0922319,83.2210787 50.7885647,82.8001567 51.4781697,82.3983675 C52.1167551,82.0252775 52.7603864,81.6859514 53.4527946,81.422031 C54.0426031,81.1963763 54.5903625,80.861552 55.1723218,80.6122626 C55.7307336,80.3731023 56.1921523,79.9454276 56.7449575,79.7366547 C57.8113223,79.3337401 58.7846184,78.7428736 59.8369668,78.3151988 C60.9784592,77.8509466 62.1059353,77.3450524 63.2440638,76.876861 C64.8514601,76.2156533 66.4145647,75.4649715 67.992807,74.742989 C68.9638605,74.2978696 69.8794092,73.7216341 70.9530624,73.5252413 C71.0483737,73.5077967 71.1347145,73.4408318 71.2261012,73.3997525 C72.1736072,72.9720777 73.1183099,72.5399011 74.0686192,72.1201046 C74.5917098,71.8888225 75.0794792,71.6068948 75.5229568,71.2056684 C75.6530286,70.7476062 75.7892677,70.2692857 75.9199002,69.810098 C75.8178611,69.6469063 75.8301955,69.4510763 75.6530286,69.3644159 C75.3827932,69.3666668 75.2796328,69.6266481 75.0834037,69.7448214 C74.8535354,69.8826902 74.6360015,70.0425055 74.4072545,70.1826253 C74.093288,70.3750789 73.7512888,70.4797467 73.3941519,70.5844145 C73.0028151,70.6986487 72.5851275,70.6181783 72.2184595,70.8156965 C71.2485273,71.3384726 70.0840481,71.4076884 69.1970927,72.1234809 C69.1729846,72.1431765 69.1320568,72.1392374 69.1012208,72.1521802 C68.3331242,72.4802517 67.5611031,72.8004451 66.7991737,73.1414595 C66.3730763,73.3316622 65.9497822,73.4971048 65.4928488,73.6169663 C64.9871385,73.7492078 64.5302051,74.067713 64.0519669,74.3046223 C63.2423819,74.7058488 62.4322362,75.1048243 61.6237725,75.507739 C60.4267753,76.10367 59.13727,76.4947674 57.9683055,77.1559751 C57.9111188,77.1880507 57.8421583,77.199868 57.7788043,77.2212518 C56.4534172,77.6725612 55.165594,78.2161584 53.8996362,78.814903 C53.6305221,78.94208 53.315995,78.9882239 53.069307,79.146351 C52.2193549,79.68826 51.3088521,80.1063683 50.4022738,80.5351686 C48.7752546,81.3049832 47.150478,82.0781742 45.5049573,82.8581179 C45.1080139,82.5531182 45.1506236,81.97632 44.6992968,81.6662558 C44.4957793,81.7844291 44.2193766,81.8705268 44.0528622,82.0562277 C43.6099452,82.5508673 43.055458,82.8344832 42.3254859,83.0922136 C42.0810406,83.0922136 41.7115693,83.0984036 41.3426587,83.0905254 C41.1088658,83.0854608 40.8476008,83.1220383 40.6463258,83.0320015 C39.9763438,82.7309409 39.249175,82.5570574 38.6346977,82.1276944 C38.3330656,81.9172334 38.0022795,81.7501026 37.6922376,81.5520216 C37.6109427,81.5002505 37.5576805,81.4057118 37.5128282,81.3550661 C37.4191989,81.1181568 37.5290871,80.9318932 37.5610444,80.7456296 C37.4163956,80.2808146 37.1803601,79.8930937 36.833315,79.5498284 C36.5002862,79.2206314 36.2182771,78.8312222 36.2059427,78.3202634 C36.1986541,78.0372102 36.0411102,77.8115555 35.913281,77.5763344 C34.8839195,75.6923144 33.818676,73.8274273 32.8313636,71.9214609 C32.0767227,70.4628648 31.1292167,69.1173774 30.4155036,67.6368349 C29.9933308,66.7601016 29.5055614,65.9154439 29.0542346,65.0533416 C28.774468,64.5181854 28.5479636,63.9509536 28.2267086,63.4433711 C27.6845558,62.5885843 27.3122812,61.6516389 26.850302,60.7591492 C26.512788,60.1086333 26.2425525,59.4232282 25.9145697,58.7676478 C25.5243542,57.9865786 25.0892863,57.2280186 24.7024348,56.4452612 C24.2415768,55.5139431 23.8104336,54.5668685 23.3669559,53.6265468 C23.1813793,53.2331985 22.9744978,52.8477285 22.8180752,52.4436884 C22.4424367,51.4741046 21.8150644,50.6412643 21.3749507,49.708258 C21.3665408,49.6902506 21.3312196,49.6846233 21.3015049,49.6767451 C21.2785181,49.7791619 21.2538493,49.8888943 21.2089969,50.0903516 C21.1490069,49.8804533 21.1170496,49.770721 21.0867743,49.664365 C20.9942663,49.6429813 20.9000763,49.6204721 20.7660799,49.5883965 C20.4823888,49.0509894 20.180196,48.4921985 19.8903377,47.9266549 C19.631876,47.4201979 19.416024,46.8889808 19.1306509,46.3982803 C18.5066425,45.3257169 18.0009322,44.194067 17.475599,43.0736716 C16.7781449,41.5846881 16.1227398,40.076009 15.4505152,38.5746455 C15.3821153,38.4221456 15.2649385,38.2606421 15.2727877,38.1087051 C15.2918499,37.7125432 15.0933783,37.400228 14.9487294,37.0659664 C14.6829792,36.4509026 14.3774225,35.8499069 14.1402657,35.2235885 C13.5341983,33.6231844 12.7868459,32.0925589 11.988474,30.5810662 C10.8441782,28.4128676 9.88377718,26.1591341 8.9581367,23.8890814 C8.51521969,22.8035753 8.05380108,21.7253846 7.5699563,20.5706627 L7.5699563,19.2437455 C7.7151658,19.0040225 7.8542081,18.7744287 8.0055848,18.5240138 C8.53764587,18.2724735 9.06466104,17.9821049 9.67297111,17.900509 C9.76716106,17.9353983 9.86135101,17.9708503 9.95946553,18.006865 C11.1076858,17.7603893 12.1802178,17.3012016 13.2028515,16.7322816 C13.7859321,16.4070237 14.3258423,16.0063599 14.8932246,15.6518401 C15.3467941,15.3682242 15.7913931,15.055909 16.2774805,14.8415089 C16.9474625,14.5466384 17.642674,14.2956608 18.3462954,14.0925153 C19.1463492,13.861796 19.9520097,13.6586505 20.7363652,13.3710955 C22.2686338,12.8089282 23.8132368,12.2799621 25.3830693,11.832029 C25.7687995,11.7217339 26.1685462,11.6373244 26.5307289,11.4730073 C27.5387856,11.0149451 28.6034684,10.7206373 29.6350726,10.3317909 C30.5702442,9.97895921 31.5295239,9.68746508 32.4860004,9.39540823 C33.9207151,8.95647885 35.3593544,8.52767861 36.8030396,8.12082484 C38.0527384,7.76799315 39.3181355,7.46974626 40.5168147,6.97623208 C40.944594,6.74663825 40.8644204,6.26494139 41.0494364,5.91717427 C41.1436263,5.74103979 41.12961,5.52495148 41.0186004,5.33306056 C40.7489256,5.0410037 40.4231854,5.05450922 40.0980058,5.20138174 C39.4274631,5.50525593 38.6817927,5.6042964 38.0426466,6.00383469 C37.7959587,6.15914816 37.4752643,6.19685107 37.1865273,6.28069783 C36.9303082,6.35554092 36.6600728,6.39380656 36.4139455,6.49340976 C35.332443,6.93402733 34.1831014,7.1568684 33.0909466,7.57497677 C31.7835004,8.07524371 30.4418543,8.48772478 29.1097394,8.92271505 C28.4117246,9.15005796 27.7081033,9.36895992 26.9955115,9.54284348 C26.2817983,9.71728977 25.6191048,10.0352322 24.9003458,10.2057394 C24.1591606,10.3818739 23.4538573,10.70882 22.7272492,10.9513566 C22.0337196,11.1837641 21.3115967,11.3430167 20.6388114,11.6243816 C19.401447,12.142656 18.1153057,12.5140577 16.8560758,12.9642417 C15.7527079,13.3592782 14.6611137,13.7666947 13.7035159,14.4701071 C13.1619237,14.8673945 12.5508104,15.1448204 11.9419396,15.4239344 C11.300551,15.7182422 10.6507525,15.9838507 9.94208525,16.0564429 C9.69932187,16.081203 9.46721093,16.1560461 9.29396871,16.3074205 C8.98112353,16.5797818 8.60099982,16.7142742 8.24834817,16.9056024 C7.44773363,17.3405927 6.68692555,17.8194759 6.21429385,18.6433126 C6.16832019,18.723783 6.07525155,18.7755541 6.01582218,18.8301389 C5.72652449,18.8261998 5.6525181,18.5150102 5.40919407,18.4677408 C5.14007994,18.49025 5.00552287,18.6663845 4.92703125,18.9083584 C4.8575101,19.1250094 4.71398256,19.2437455 4.44094385,19.2392436 C3.40877902,18.6618827 2.68553478,17.7643284 2.19496215,16.7975583 C2.03573628,16.1329742 2.32391267,15.6400227 2.36091586,15.1633904 C2.79037717,14.4470352 3.58314255,14.4138341 4.16117728,14.0266759 C4.66296301,13.6912888 5.26286326,13.5500436 5.80277349,13.5652373 C6.58432578,13.2264739 7.27785533,12.8848968 7.99997825,12.6221019 C9.19529353,12.1876743 10.4079891,11.8016416 11.6156388,11.4009778 C12.2811356,11.1803877 12.9684979,11.017196 13.6126899,10.7476483 C14.2574425,10.4769752 14.9184541,10.2676397 15.5962853,10.0115975 C15.6142263,10.1376491 15.6428196,10.2338759 15.6377737,10.3284145 C15.627682,10.51918 15.5990886,10.70882 15.5777837,10.89846 C16.0728416,10.969364 16.1283464,11.0008768 16.346441,10.8782017 C16.833089,10.6052777 17.3606648,10.5585711 17.8725424,10.5501301 C18.346856,10.2136176 18.8766745,10.0678705 19.388552,9.9525109 C20.7279554,9.65088763 22.0387655,9.27554674 23.3125724,8.76233701 C23.8704236,8.53724502 24.431078,8.3003357 25.0124767,8.16077867 C25.5540689,8.03135077 26.0110023,7.79219054 26.42028,7.44723706 C26.4903618,7.0612043 26.5593223,6.67911065 26.6148271,6.37298555 C26.7919939,6.17884371 26.9450526,6.12594709 27.1138095,6.08768145 C27.5679396,5.98470187 28.0181452,5.86596584 28.4705933,5.7562335 C29.47865,5.51088323 30.4211101,5.06970293 31.4129078,4.77539516 C32.6911999,4.39611515 33.925761,3.88515634 35.2410564,3.61054411 C36.2485524,3.40064583 37.2420321,3.09170708 38.2153282,2.75069272 C39.4437221,2.31907883 40.6737979,1.9110996 41.9885326,1.71076773 C42.0401128,1.86326755 42.059175,2.04390387 42.1511224,2.17276904 C42.7022457,2.94314637 43.0677924,3.80412322 43.4187621,4.67635468 C43.5813519,5.08152026 43.7573974,5.49512679 44.0068886,5.84795848 C44.7099493,6.84117688 45.1433351,7.97057594 45.6759569,9.04932929 C45.9248874,9.55522354 46.1474672,10.075186 46.4070503,10.5771412 C46.5758072,10.9029618 46.6789677,11.2698618 46.8819246,11.5703596 C47.0860028,11.8747965 47.2912023,12.1668533 47.440897,12.5078677 C47.6146999,12.9034669 47.8518568,13.2709295 48.0626628,13.6507723 C48.5341732,14.5010573 49.0572638,15.3277076 49.4659809,16.2066918 C50.0193468,17.3991166 50.6775552,18.5273902 51.3682814,19.6387819 C51.6351529,20.0670194 51.815123,20.5323971 52.0343389,20.9808929 C52.6213441,22.1834468 53.3087065,23.331416 53.9058034,24.5311563 C54.4552448,25.6369207 55.0674794,26.7122977 55.621406,27.8180621 C56.3295126,29.2305143 56.9894029,30.6677266 57.8057157,32.0233431 C57.9088762,32.194413 57.9716695,32.3891176 58.0557676,32.5714421 C58.6612744,33.8797893 59.2365059,35.2033302 59.8857437,36.4891682 C60.2787625,37.266861 60.7042992,38.0293601 61.1034852,38.8059275 C61.5161269,39.6089432 61.9097063,40.4209625 62.3004824,41.2352328 C62.7209733,42.1108406 63.0943691,43.0134595 63.5692434,43.8581172 C63.7817315,44.2362717 63.8804066,44.6616956 64.1568093,45.0179037 C64.4208775,45.3566671 64.5644051,45.7877183 64.76568,46.1760019 C65.5556421,47.6936847 66.2020767,49.285085 67.1075336,50.7431184 C67.1428548,50.8005168 67.1781761,50.8579153 67.2067695,50.9192529 C67.7517256,52.0666593 68.3062128,53.2095639 68.8360313,54.3648485 C69.3389383,55.4616092 69.7874619,56.5842555 70.3105525,57.6714498 C70.9373641,58.9741697 71.4458777,60.3224707 71.9583159,61.6707717 C72.2207021,62.3601159 72.4567377,63.0764712 72.8357401,63.7005387 C73.5214205,64.831626 73.877436,66.0960802 74.4139823,67.2862541 L74.4139823,67.2862541 Z" id="Fill-1" fill="#1A1919"></path>
                </g>
            </g>
        </g>
    </g>
</svg>